<svg width="257" height="428" viewBox="0 0 257 428" fill="none" xmlns="http://www.w3.org/2000/svg">
<path d="M244.42 253.944L190.059 264.094L188.08 169.219C187.564 163.284 191.435 157.865 197.112 156.747C202.789 155.629 208.294 159.413 210.014 165.09L244.335 253.944H244.42Z" fill="#00FFF8"/>
<path d="M214.23 178.853L198.575 196.142L203.993 252.998L191.091 254.03L187.565 194.507C186.533 189.777 204.854 175.67 211.821 173.692C213.369 173.262 214.229 178.165 214.401 178.853H214.23Z" fill="#D6B9B2"/>
<path d="M244.42 253.944L190.059 264.094L188.08 169.219C187.564 163.284 191.435 157.865 197.112 156.747C202.789 155.629 208.294 159.413 210.014 165.09L244.335 253.944H244.42Z" stroke="#230B00" stroke-width="4.7" stroke-miterlimit="5.5"/>
<path d="M249.41 305.295L204.854 313.466C203.22 313.81 201.586 312.692 201.242 310.972L198.661 297.037C198.231 294.887 196.253 293.511 194.102 293.769L189.286 294.457C189.286 294.457 192.296 271.405 193.93 271.061L241.583 262.889C243.217 262.545 248.12 271.835 248.12 271.835C251.216 278.716 252.679 286.199 252.249 293.683C252.249 293.683 250.958 304.865 249.324 305.209L249.41 305.295Z" fill="#FFFEDC"/>
<path d="M225.412 309.08C225.412 309.08 209.413 298.07 205.198 286.63C203.908 283.275 205.112 279.49 207.951 277.254L220.853 267.448C220.853 267.448 193.758 270.717 193.93 271.061C194.102 271.405 189.286 293.769 189.286 293.769L197.027 294.457L202.618 313.466L225.412 308.994V309.08Z" fill="#D6B9B2"/>
<path d="M249.41 305.295L204.854 313.466C203.22 313.81 201.586 312.692 201.242 310.972L198.661 297.037C198.231 294.887 196.253 293.511 194.102 293.769L189.286 294.457C189.286 294.457 192.296 271.405 193.93 271.061L241.583 262.889C243.217 262.545 248.12 271.835 248.12 271.835C251.216 278.716 252.679 286.199 252.249 293.683C252.249 293.683 250.958 304.865 249.324 305.209L249.41 305.295Z" stroke="#230B00" stroke-width="4.7" stroke-miterlimit="5.5"/>
<path d="M192.381 288.78L193.93 289.125C198.489 290.157 201.327 294.716 200.209 299.274L196.08 317.165C195.134 321.208 191.091 323.703 187.049 322.756C183.006 321.81 180.512 317.768 181.458 313.725L186.36 292.479C186.962 289.813 189.715 288.092 192.381 288.694V288.78Z" fill="#FFFEDC"/>
<path d="M189.715 321.896C189.715 321.896 182.662 319.918 189.027 302.456C195.392 284.995 185.758 295.575 185.758 295.575L184.038 301.596L182.318 318.025L186.016 322.498L189.801 321.896H189.715Z" fill="#D6B9B2"/>
<path d="M192.381 288.78L193.93 289.125C198.489 290.157 201.327 294.716 200.209 299.274L196.08 317.165C195.134 321.208 191.091 323.703 187.049 322.756C183.006 321.81 180.512 317.768 181.458 313.725L186.36 292.479C186.962 289.813 189.715 288.092 192.381 288.694V288.78Z" stroke="#230B00" stroke-width="4.7" stroke-miterlimit="5.5"/>
<path d="M234.529 333.164C238.142 334.282 241.841 332.82 243.475 329.809C244.077 328.691 244.594 327.659 245.196 326.541L248.034 321.724C250.012 318.283 251.302 314.499 251.819 310.456L253.109 300.392C253.883 297.984 252.421 295.231 249.754 294.371L248.292 293.855C243.905 292.393 239.175 294.629 237.798 298.758L237.282 305.123C236.938 309.596 235.562 313.81 233.325 317.681L230.315 322.842C228.766 325.422 229.197 328.777 231.433 331.013C232.293 331.874 233.411 332.562 234.616 332.992L234.529 333.164Z" fill="#FFFEDC"/>
<path d="M237.369 332.045C237.369 332.045 232.896 328.605 235.476 324.304C238.057 320.003 241.239 313.122 241.669 305.467C242.099 297.811 242.013 296.607 243.82 294.887C245.626 293.167 237.455 297.983 237.455 297.983L234.616 316.133L228.767 325.938L234.53 333.508L237.369 332.045Z" fill="#D6B9B2"/>
<path d="M234.529 333.164C238.142 334.282 241.841 332.82 243.475 329.809C244.077 328.691 244.594 327.659 245.196 326.541L248.034 321.724C250.012 318.283 251.302 314.499 251.819 310.456L253.109 300.392C253.883 297.984 252.421 295.231 249.754 294.371L248.292 293.855C243.905 292.393 239.175 294.629 237.798 298.758L237.282 305.123C236.938 309.596 235.562 313.81 233.325 317.681L230.315 322.842C228.766 325.422 229.197 328.777 231.433 331.013C232.293 331.874 233.411 332.562 234.616 332.992L234.529 333.164Z" stroke="#230B00" stroke-width="4.5" stroke-miterlimit="5.5"/>
<path d="M225.239 342.625C229.024 342.797 232.293 340.217 233.067 336.69C233.325 335.4 233.583 334.11 233.927 332.82L235.389 327.057C236.507 322.928 236.765 318.541 236.249 314.326L234.959 303.488C235.131 300.736 232.981 298.327 230.228 298.241H228.68C224.035 297.897 219.993 301.51 219.734 306.155L220.852 312.95C221.627 317.681 221.369 322.498 220.165 327.143L218.53 333.422C217.756 336.518 218.874 339.959 221.627 341.679C222.659 342.367 223.949 342.797 225.239 342.883V342.625Z" fill="#FFFEDC"/>
<path d="M228.078 340.819C228.078 340.819 222.573 339.701 224.035 331.443C225.498 323.186 225.153 312.95 223.777 308.219C222.401 303.488 225.412 299.273 225.412 299.273C225.412 299.273 219.993 303.832 220.079 304.176C220.165 304.52 221.283 319.487 221.283 320.089C221.283 320.691 217.67 336.088 217.67 336.088L224.207 343.141L228.078 340.819Z" fill="#D6B9B2"/>
<path d="M225.239 342.625C229.024 342.797 232.293 340.217 233.067 336.69C233.325 335.4 233.583 334.11 233.927 332.82L235.389 327.057C236.507 322.928 236.765 318.541 236.249 314.326L234.959 303.488C235.131 300.736 232.981 298.327 230.228 298.241H228.68C224.035 297.897 219.993 301.51 219.734 306.155L220.852 312.95C221.627 317.681 221.369 322.498 220.165 327.143L218.53 333.422C217.756 336.518 218.874 339.959 221.627 341.679C222.659 342.367 223.949 342.797 225.239 342.883V342.625Z" stroke="#230B00" stroke-width="4.7" stroke-miterlimit="5.5"/>
<path d="M209.155 347.27C212.94 347.27 216.123 344.604 216.725 340.991C216.983 339.701 217.155 338.411 217.413 337.12L218.703 331.271C219.649 327.057 219.735 322.756 219.047 318.541L217.327 307.789C217.327 305.037 215.177 302.714 212.424 302.714H210.876C206.231 302.628 202.36 306.327 202.274 310.972L203.65 317.681C204.597 322.412 204.511 327.229 203.479 331.874L202.102 338.153C201.414 341.335 202.704 344.604 205.543 346.238C206.661 346.84 207.865 347.27 209.241 347.27H209.155Z" fill="#FFFEDC"/>
<path d="M210.961 345.034C210.961 345.034 206.488 343.657 207.951 334.196C209.413 324.734 209.069 317.853 206.489 312.004C203.908 306.069 207.693 304.606 207.693 304.606L202.876 308.047L204.338 324.734L201.93 342.625L207.693 347.442L210.961 345.034Z" fill="#D6B9B2"/>
<path d="M209.155 347.27C212.94 347.27 216.123 344.604 216.725 340.991C216.983 339.701 217.155 338.411 217.413 337.12L218.703 331.271C219.649 327.057 219.735 322.756 219.047 318.541L217.327 307.789C217.327 305.037 215.177 302.714 212.424 302.714H210.876C206.231 302.628 202.36 306.327 202.274 310.972L203.65 317.681C204.597 322.412 204.511 327.229 203.479 331.874L202.102 338.153C201.414 341.335 202.704 344.604 205.543 346.238C206.661 346.84 207.865 347.27 209.241 347.27H209.155Z" stroke="#230B00" stroke-width="4.7" stroke-miterlimit="5.5"/>
<path d="M234.96 273.125C225.584 276.48 215.779 278.372 205.887 278.716C205.887 278.716 188.856 279.318 188.684 278.286L187.996 276.652C185.931 271.749 185.071 254.46 186.189 254.288L200.898 253.17C210.876 252.826 220.768 250.933 230.143 247.579L244.336 243.106C245.454 242.762 251.045 259.363 250.959 265.126V266.33C251.131 267.276 234.96 273.125 234.96 273.125Z" fill="#FFFEDC"/>
<path d="M185.157 253.857L199.092 252.825C199.092 258.072 195.565 265.039 198.318 270.974L199.608 273.813C200.038 275.447 216.897 273.899 216.897 273.899C223.864 273.555 230.746 272.437 237.455 270.63C235.562 271.318 234.272 271.835 234.272 271.835C224.982 275.275 215.176 277.34 205.285 277.856C205.285 277.856 188.168 278.716 187.996 277.77L187.48 276.651C185.157 271.404 184.039 253.943 185.157 253.771V253.857Z" fill="#D6B9B2"/>
<path d="M234.96 273.125C225.584 276.48 215.779 278.372 205.887 278.716C205.887 278.716 188.856 279.318 188.684 278.286L187.996 276.652C185.931 271.749 185.071 254.46 186.189 254.288L200.898 253.17C210.876 252.826 220.768 250.933 230.143 247.579L244.336 243.106C245.454 242.762 251.045 259.363 250.959 265.126V266.33C251.131 267.276 234.96 273.125 234.96 273.125Z" stroke="#230B00" stroke-width="4.7" stroke-miterlimit="5.5"/>
<path d="M249.098 298.965C252.888 297.878 254.836 293.074 253.448 288.233C252.06 283.393 247.862 280.35 244.072 281.436C240.282 282.523 238.335 287.328 239.723 292.169C241.111 297.009 245.308 300.052 249.098 298.965Z" fill="#8900EA"/>
<path d="M249.098 298.965C252.888 297.878 254.836 293.074 253.448 288.233C252.06 283.393 247.862 280.35 244.072 281.436C240.282 282.523 238.335 287.328 239.723 292.169C241.111 297.009 245.308 300.052 249.098 298.965Z" stroke="#230B00" stroke-width="4.5" stroke-miterlimit="5.5"/>
<path d="M232.101 303.813C235.891 302.726 237.838 297.921 236.45 293.081C235.062 288.24 230.865 285.197 227.074 286.284C223.284 287.371 221.337 292.176 222.725 297.016C224.113 301.857 228.311 304.9 232.101 303.813Z" fill="#8900EA"/>
<path d="M232.101 303.813C235.891 302.726 237.838 297.921 236.45 293.081C235.062 288.24 230.865 285.197 227.074 286.284C223.284 287.371 221.337 292.176 222.725 297.016C224.113 301.857 228.311 304.9 232.101 303.813Z" stroke="#230B00" stroke-width="4.5" stroke-miterlimit="5.5"/>
<path d="M214.768 308.733C218.558 307.646 220.505 302.841 219.117 298.001C217.729 293.16 213.532 290.117 209.741 291.204C205.951 292.291 204.004 297.096 205.392 301.936C206.78 306.777 210.978 309.82 214.768 308.733Z" fill="#8900EA"/>
<path d="M214.768 308.733C218.558 307.646 220.505 302.841 219.117 298.001C217.729 293.16 213.532 290.117 209.741 291.204C205.951 292.291 204.004 297.096 205.392 301.936C206.78 306.777 210.978 309.82 214.768 308.733Z" stroke="#230B00" stroke-width="4.5" stroke-miterlimit="5.5"/>
<path d="M194.674 293.728C195.807 288.822 193.611 284.125 189.769 283.238C185.927 282.351 181.894 285.61 180.761 290.516C179.629 295.423 181.825 300.119 185.667 301.006C189.509 301.893 193.541 298.635 194.674 293.728Z" fill="#8900EA"/>
<path d="M194.674 293.728C195.807 288.822 193.611 284.125 189.769 283.238C185.927 282.351 181.894 285.61 180.761 290.516C179.629 295.423 181.825 300.119 185.667 301.006C189.509 301.893 193.541 298.635 194.674 293.728Z" stroke="#230B00" stroke-width="4.5" stroke-miterlimit="5.5"/>
<path d="M189.372 229.859C189.372 229.859 212.338 232.096 231.261 220.054" stroke="#230B00" stroke-width="4.7" stroke-miterlimit="5.5"/>
<path d="M187.479 195.453C187.479 195.453 201.586 199.754 220.509 187.798" stroke="#230B00" stroke-width="4.7" stroke-miterlimit="5.5"/>
<path d="M130.881 351.916H180.856L152.471 216.958H130.881V351.916Z" fill="#00FFF8"/>
<path d="M156.6 240.785C156.6 240.785 147.396 244.741 137.935 241.903L146.708 336.606C146.708 336.606 149.891 344.347 173.975 344.003C173.975 344.003 146.192 350.798 132.171 344.863V231.667H156.6V240.699V240.785Z" fill="#D6B9B2"/>
<path d="M130.881 351.916H180.856L152.471 216.958H130.881V351.916Z" stroke="#230B00" stroke-width="4.7" stroke-miterlimit="5.5"/>
<path d="M125.548 228.656L127.269 229.172C138.967 232.871 151.525 232.699 163.137 228.656C165.201 227.882 166.492 225.731 165.975 223.581L159.954 196.916C159.524 194.938 157.718 193.476 155.654 193.476L126.752 193.648C124.86 193.648 123.312 227.968 125.548 228.656Z" fill="#5C00AD"/>
<path d="M156.085 194.25L163.74 216.356C163.74 216.356 136.817 224.613 123.829 218.42L124.603 201.475L156.085 194.164V194.25Z" fill="#D6B9B2"/>
<path d="M125.548 228.656L127.269 229.172C138.967 232.871 151.525 232.699 163.137 228.656C165.201 227.882 166.492 225.731 165.975 223.581L159.954 196.916C159.524 194.938 157.718 193.476 155.654 193.476L126.752 193.648C124.86 193.648 123.312 227.968 125.548 228.656Z" stroke="#230B00" stroke-width="4.7" stroke-miterlimit="5.5"/>
<path d="M129.677 424.34H225.756V395.525L215.09 386.838C207.263 380.386 198.661 374.967 189.458 370.581L181.372 366.71H129.591L128.559 373.849C127.183 383.569 126.839 393.375 127.699 403.094L129.591 424.254L129.677 424.34Z" fill="#8900EA"/>
<path d="M186.876 406.621C186.876 406.621 144.385 396.643 154.019 371.355L129.676 368.086C129.676 368.086 126.666 384.515 127.01 385.375C127.354 386.235 128.3 409.287 128.3 409.287L186.79 406.621H186.876Z" fill="#D6B9B2"/>
<path d="M129.677 424.34H225.756V395.525L215.09 386.838C207.263 380.386 198.661 374.967 189.458 370.581L181.372 366.71H129.591L128.559 373.849C127.183 383.569 126.839 393.375 127.699 403.094L129.591 424.254L129.677 424.34Z" stroke="#230B00" stroke-width="4.7" stroke-miterlimit="5.5"/>
<path d="M133.205 407.653H201.157C201.501 407.653 201.845 407.395 201.845 406.965C201.845 399.654 207.78 393.805 215.005 393.805H223.348C230.66 393.805 236.509 399.74 236.509 406.965V424.684C236.509 425.028 236.251 425.372 235.821 425.372H125.721C125.377 425.372 125.033 425.114 125.033 424.684V415.653C125.033 411.18 128.646 407.567 133.119 407.567L133.205 407.653Z" fill="#5C00AD"/>
<path d="M172.256 424.34C172.256 424.34 161.16 418.147 163.053 407.653L129.248 408.686L125.55 413.072L125.722 425.372L172.17 424.34H172.256Z" fill="#D6B9B2"/>
<path d="M133.205 407.653H201.157C201.501 407.653 201.845 407.395 201.845 406.965C201.845 399.654 207.78 393.805 215.005 393.805H223.348C230.66 393.805 236.509 399.74 236.509 406.965V424.684C236.509 425.028 236.251 425.372 235.821 425.372H125.721C125.377 425.372 125.033 425.114 125.033 424.684V415.653C125.033 411.18 128.646 407.567 133.119 407.567L133.205 407.653Z" stroke="#230B00" stroke-width="4.7" stroke-miterlimit="5.5"/>
<path d="M143.095 370.151C151.869 371.183 160.815 370.839 169.502 369.205C169.502 369.205 184.469 366.28 184.383 365.42L184.641 363.872C185.501 359.141 182.748 344.002 181.716 344.088L168.642 346.067C159.869 347.701 150.923 348.045 142.063 347.013L128.817 345.981C127.785 345.981 126.236 361.463 127.44 366.452L127.699 367.484C127.699 368.345 142.923 370.151 142.923 370.151H143.095Z" fill="#FFFEDC"/>
<path d="M129.936 344.776L145.161 345.55C144.645 349.593 140.774 355.012 141.462 359.313C141.72 360.947 142.494 362.496 143.613 363.786C143.613 364.56 153.59 366.28 157.461 367.054C158.321 367.226 159.181 367.312 160.042 367.398C166.579 367.656 173.116 367.226 179.567 366.28C177.674 366.796 176.298 367.14 176.298 367.14C166.665 369.549 156.773 370.495 146.881 369.979C146.881 369.979 129.85 369.033 129.764 368.086L129.42 366.968C127.786 361.721 128.818 344.776 129.936 344.776Z" fill="#D6B9B2"/>
<path d="M143.095 370.151C151.869 371.183 160.815 370.839 169.502 369.205C169.502 369.205 184.469 366.28 184.383 365.42L184.641 363.872C185.501 359.141 182.748 344.002 181.716 344.088L168.642 346.067C159.869 347.701 150.923 348.045 142.063 347.013L128.817 345.981C127.785 345.981 126.236 361.463 127.44 366.452L127.699 367.484C127.699 368.345 142.923 370.151 142.923 370.151H143.095Z" stroke="#230B00" stroke-width="4.7" stroke-miterlimit="5.5"/>
<path d="M172.255 303.059C172.255 303.059 150.751 311.488 129.248 305.209" stroke="#230B00" stroke-width="4.7" stroke-miterlimit="5.5"/>
<path d="M163.052 262.46C163.052 262.46 150.924 270.287 129.42 263.922" stroke="#230B00" stroke-width="4.7" stroke-miterlimit="5.5"/>
<path d="M194.534 373.161C194.534 373.161 171.74 377.634 164.601 407.739" stroke="#230B00" stroke-width="4.7" stroke-miterlimit="5.5"/>
<path d="M106.281 351.916H56.3057L84.6907 216.958H106.281V351.916Z" fill="#00FFF8"/>
<path d="M106.281 239.58C106.281 239.58 95.5293 242.333 86.0676 239.58L73.4232 336.692C73.4232 336.692 76.6059 344.433 100.69 344.089C100.69 344.089 72.9072 350.884 58.8867 344.949L81.8525 230.549H106.281V239.58Z" fill="#D6B9B2"/>
<path d="M106.281 351.916H56.3057L84.6907 216.958H106.281V351.916Z" stroke="#230B00" stroke-width="4.7" stroke-miterlimit="5.5"/>
<path d="M113.936 228.656L112.216 229.172C100.518 232.871 87.9597 232.699 76.3477 228.656C74.2833 227.882 72.9932 225.731 73.5093 223.581L79.5304 196.916C79.9605 194.938 81.7668 193.476 83.8311 193.476L112.732 193.648C114.625 193.648 116.173 227.968 113.936 228.656Z" fill="#5C00AD"/>
<path d="M113.248 194.336L115.054 217.646C115.054 217.646 86.9269 218.85 75.917 209.646L80.9061 193.476L113.248 194.336Z" fill="#D6B9B2"/>
<path d="M113.936 228.656L112.216 229.172C100.518 232.871 87.9597 232.699 76.3477 228.656C74.2833 227.882 72.9932 225.731 73.5093 223.581L79.5304 196.916C79.9605 194.938 81.7668 193.476 83.8311 193.476L112.732 193.648C114.625 193.648 116.173 227.968 113.936 228.656Z" stroke="#230B00" stroke-width="4.7" stroke-miterlimit="5.5"/>
<path d="M44.1777 425.029H115.743L111.7 393.891C111.184 389.849 110.409 385.806 109.377 381.849L105.421 366.108H56.2199L51.7469 382.193C50.7147 385.892 49.8547 389.677 49.2525 393.547L44.1777 425.029Z" fill="#8900EA"/>
<path d="M70.9283 393.117C70.9283 393.117 61.9827 385.892 70.9283 371.355L56.2196 368.087L51.3166 383.742L46.9302 407.74L59.3163 407.396L62.4129 399.482L70.8422 393.203L70.9283 393.117Z" fill="#D6B9B2"/>
<path d="M44.1777 425.029H115.743L111.7 393.891C111.184 389.849 110.409 385.806 109.377 381.849L105.421 366.108H56.2199L51.7469 382.193C50.7147 385.892 49.8547 389.677 49.2525 393.547L44.1777 425.029Z" stroke="#230B00" stroke-width="4.7" stroke-miterlimit="5.5"/>
<path d="M47.9622 407.31H59.4025C60.1766 407.31 60.7784 406.708 60.7784 405.934C60.7784 399.998 65.5952 395.182 71.5303 395.182H85.8089C91.7439 395.182 96.5608 399.998 96.5608 405.934C96.5608 406.708 97.163 407.31 97.9371 407.31H112.044C115.57 407.31 118.495 410.148 118.495 413.761V423.739C118.495 424.513 117.892 425.115 117.118 425.115H42.9735C42.1994 425.115 41.5972 424.513 41.5972 423.739V413.761C41.5972 410.234 44.4357 407.31 48.0483 407.31H47.9622Z" fill="#5C00AD"/>
<path d="M79.1856 424.34C79.1856 424.34 64.563 423.652 69.6379 395.525L62.8428 399.138L59.4022 407.309L42.5431 407.654L41.5107 419.266L42.8871 424.943L79.1856 424.34Z" fill="#D6B9B2"/>
<path d="M47.9622 407.31H59.4025C60.1766 407.31 60.7784 406.708 60.7784 405.934C60.7784 399.998 65.5952 395.182 71.5303 395.182H85.8089C91.7439 395.182 96.5608 399.998 96.5608 405.934C96.5608 406.708 97.163 407.31 97.9371 407.31H112.044C115.57 407.31 118.495 410.148 118.495 413.761V423.739C118.495 424.513 117.892 425.115 117.118 425.115H42.9735C42.1994 425.115 41.5972 424.513 41.5972 423.739V413.761C41.5972 410.234 44.4357 407.31 48.0483 407.31H47.9622Z" stroke="#230B00" stroke-width="4.7" stroke-miterlimit="5.5"/>
<path d="M68.0037 369.72C76.7773 371.01 85.7226 371.01 94.4101 369.72C94.4101 369.72 109.463 367.311 109.463 366.451L109.807 364.903C110.753 360.258 108.603 344.948 107.571 345.034L94.4962 346.582C85.7227 347.958 76.6912 347.958 67.9176 346.582L54.757 345.12C53.7249 345.034 51.5746 360.516 52.6928 365.505L52.9511 366.537C52.9511 367.398 68.0894 369.72 68.0894 369.72H68.0037Z" fill="#FFFEDC"/>
<path d="M55.1017 344.26L70.3262 345.034C69.8101 349.077 65.9396 354.496 66.6277 358.796C66.8857 360.431 67.6599 361.979 68.7781 363.269C68.7781 364.043 78.7559 365.764 82.6266 366.538C83.4867 366.71 84.3469 366.796 85.207 366.882C91.7442 367.14 98.2811 366.71 104.732 365.764C102.84 366.28 101.464 366.624 101.464 366.624C91.8301 369.032 81.9382 369.978 72.0465 369.462C72.0465 369.462 55.0155 368.516 54.9295 367.57L54.5856 366.452C52.9513 361.205 53.9835 344.26 55.1017 344.26Z" fill="#D6B9B2"/>
<path d="M68.0037 369.72C76.7773 371.01 85.7226 371.01 94.4101 369.72C94.4101 369.72 109.463 367.311 109.463 366.451L109.807 364.903C110.753 360.258 108.603 344.948 107.571 345.034L94.4962 346.582C85.7227 347.958 76.6912 347.958 67.9176 346.582L54.757 345.12C53.7249 345.034 51.5746 360.516 52.6928 365.505L52.9511 366.537C52.9511 367.398 68.0894 369.72 68.0894 369.72H68.0037Z" stroke="#230B00" stroke-width="4.7" stroke-miterlimit="5.5"/>
<path d="M64.564 302.543C64.564 302.543 86.0678 310.972 107.572 304.693" stroke="#230B00" stroke-width="4.7" stroke-miterlimit="5.5"/>
<path d="M73.7671 261.943C73.7671 261.943 85.8953 269.771 107.399 263.406" stroke="#230B00" stroke-width="4.7" stroke-miterlimit="5.5"/>
<path d="M111.271 393.117C111.271 393.117 79.5311 366.194 49.9419 393.117" stroke="#230B00" stroke-width="4.7" stroke-miterlimit="5.5"/>
<path d="M24.3086 106.944C24.3086 164.746 71.1009 211.539 128.903 211.539C186.705 211.539 182.061 200.615 200.812 182.895C220.939 163.8 233.498 136.877 233.498 106.944C233.498 77.0108 226.014 62.5602 213.37 45.2712C194.361 19.2086 163.567 2.34961 128.903 2.34961C71.1009 2.34961 24.3086 49.1419 24.3086 106.944Z" fill="#FFFEDC"/>
<path d="M24.3086 106.944C24.3086 164.747 71.1009 211.539 128.903 211.539C186.705 211.539 182.061 200.615 200.812 182.896C220.939 163.8 233.498 136.878 233.498 106.944C233.498 106.944 24.3086 104.536 24.3086 106.944Z" fill="#8900EA"/>
<path d="M24.3086 106.944C24.3086 164.747 71.1009 211.539 128.903 211.539C186.705 211.539 182.061 200.615 200.812 182.896C220.939 163.8 233.498 136.878 233.498 106.944C233.498 106.944 24.3086 104.536 24.3086 106.944Z" stroke="#230B00" stroke-width="4.7" stroke-miterlimit="5.5"/>
<path d="M103.442 5.53223C83.7446 23.2514 77.4657 49.744 77.4657 78.3011C77.4657 131.803 89.9377 186.25 143.439 186.25C196.941 186.25 192.64 176.186 210.015 159.757C216.552 153.564 222.143 146.511 226.788 138.856C221.455 155.543 211.907 170.423 199.521 182.207C181.114 199.669 156.169 210.42 128.73 210.42C71.8744 210.42 25.7705 164.316 25.7705 107.46C25.7705 50.6042 49.4246 20.8429 103.528 5.53223H103.442Z" fill="#D6B9B2"/>
<path d="M24.3086 106.944C24.3086 164.746 71.1009 211.539 128.903 211.539C186.705 211.539 182.061 200.615 200.812 182.895C220.939 163.8 233.498 136.877 233.498 106.944C233.498 77.0108 226.014 62.5602 213.37 45.2712C194.361 19.2086 163.567 2.34961 128.903 2.34961C71.1009 2.34961 24.3086 49.1419 24.3086 106.944Z" stroke="#230B00" stroke-width="4.7" stroke-miterlimit="5.5"/>
<path d="M136.644 179.369C145.67 179.369 152.987 170.666 152.987 159.93C152.987 149.194 145.67 140.49 136.644 140.49C127.618 140.49 120.301 149.194 120.301 159.93C120.301 170.666 127.618 179.369 136.644 179.369Z" fill="#5E0000"/>
<path d="M120.301 155.543C122.279 154.769 124.343 154.425 126.58 154.425C136.299 154.425 144.127 162.252 144.127 171.972C144.127 181.692 143.869 175.499 143.353 177.047C137.418 178.767 120.645 181.348 120.301 155.543Z" fill="#DB6565"/>
<path d="M136.644 179.369C145.67 179.369 152.987 170.666 152.987 159.93C152.987 149.194 145.67 140.49 136.644 140.49C127.618 140.49 120.301 149.194 120.301 159.93C120.301 170.666 127.618 179.369 136.644 179.369Z" stroke="#230B00" stroke-width="4.7" stroke-miterlimit="5.5" stroke-linecap="round"/>
<path d="M69.8971 148.919L236.939 161.908C239.089 162.08 241.067 160.789 241.927 158.639C255.002 126.039 255.002 89.0526 241.927 56.4529C241.067 54.3025 239.003 52.9263 236.767 53.1843L69.123 72.2797L69.811 149.005L69.8971 148.919Z" fill="#230B00" stroke="#230B00" stroke-width="4.8" stroke-miterlimit="5.5"/>
<path opacity="0.2" d="M204.51 57.6573C204.51 57.6573 158.148 119.846 210.532 158.725L151.009 154.08C151.009 154.08 187.136 117.868 153.16 64.1945L204.51 57.5713V57.6573Z" fill="white"/>
<path d="M69.8971 148.919L236.939 161.908C239.089 162.08 241.067 160.789 241.927 158.639C255.002 126.039 255.002 89.0526 241.927 56.4529C241.067 54.3025 239.003 52.9263 236.767 53.1843L69.123 72.2797L69.811 149.005L69.8971 148.919Z" stroke="#230B00" stroke-width="4.7" stroke-miterlimit="5.5"/>
<path d="M62.5863 150.124C67.5752 151.414 72.4782 147.973 74.3706 141.78C77.3811 131.975 78.8431 121.653 78.8431 111.331C78.8431 101.009 77.3811 90.6012 74.3706 80.8815L74.1984 80.3654C72.3921 74.4304 67.7472 70.9037 62.9303 71.8499L29.8145 78.4731C35.3194 78.4731 39.7923 86.7305 39.7923 108.922C39.7923 131.114 35.2334 139.888 30.2445 141.264C29.9865 141.264 62.5863 150.21 62.5863 150.21V150.124Z" fill="#FFFEDC"/>
<g style="mix-blend-mode:multiply">
<path d="M77.4675 131.889C69.3821 126.212 57.9421 125.008 48.6524 127.502C45.2978 128.448 41.8571 129.997 39.0186 132.233V113.138C44.4375 117.438 51.4907 119.159 58.2859 119.159C64.909 119.159 71.9622 117.524 77.5532 113.568V131.889H77.4675Z" fill="#D6B9B2"/>
</g>
<path d="M19.8374 108.75C19.8374 122.341 21.2136 131.544 23.622 136.619C24.4821 138.425 25.4281 139.63 26.4603 140.404C27.2345 141.006 28.0946 141.264 29.0408 141.264C29.9869 141.264 29.3849 141.264 29.5569 141.264C34.8899 140.662 39.7927 130.168 39.7927 108.75C39.7927 87.3324 35.3198 78.3008 29.8148 78.3008C24.3099 78.3008 28.4388 78.3868 27.8366 78.7309C26.2884 79.419 24.8262 80.8812 23.622 83.2897C21.2996 87.9345 19.8374 96.1059 19.8374 108.75Z" fill="#FFFEDC"/>
<path d="M19.8374 108.75C19.8374 122.341 21.2136 131.544 23.622 136.619C24.4821 138.425 25.4281 139.63 26.4603 140.404C27.2345 141.006 28.0946 141.264 29.0408 141.264C29.9869 141.264 29.3849 141.264 29.5569 141.264C34.8899 140.662 39.7927 130.168 39.7927 108.75C39.7927 87.3324 35.3198 78.3008 29.8148 78.3008C24.3099 78.3008 28.4388 78.3868 27.8366 78.7309C26.2884 79.419 24.8262 80.8812 23.622 83.2897C21.2996 87.9345 19.8374 96.1059 19.8374 108.75Z" fill="#D6B9B2"/>
<path d="M62.5863 150.124C67.5752 151.414 72.4782 147.973 74.3706 141.78C77.3811 131.975 78.8431 121.653 78.8431 111.331C78.8431 101.009 77.3811 90.6012 74.3706 80.8815L74.1984 80.3654C72.3921 74.4304 67.7472 70.9037 62.9303 71.8499L29.8145 78.4731C35.3194 78.4731 39.7923 86.7305 39.7923 108.922C39.7923 131.114 35.2334 139.888 30.2445 141.264C29.9865 141.264 62.5863 150.21 62.5863 150.21V150.124Z" stroke="#230B00" stroke-width="4.7" stroke-miterlimit="5.5"/>
<path d="M19.8374 108.75C19.8374 122.341 21.2136 131.544 23.622 136.619C24.4821 138.425 25.4281 139.63 26.4603 140.404C27.2345 141.006 28.0946 141.264 29.0408 141.264C29.9869 141.264 29.3849 141.264 29.5569 141.264C34.8899 140.662 39.7927 130.168 39.7927 108.75C39.7927 87.3324 35.3198 78.3008 29.8148 78.3008C24.3099 78.3008 28.4388 78.3868 27.8366 78.7309C26.2884 79.419 24.8262 80.8812 23.622 83.2897C21.2996 87.9345 19.8374 96.1059 19.8374 108.75Z" stroke="#230B00" stroke-width="4.7" stroke-miterlimit="5.5"/>
<path d="M58.8872 182.552C68.1507 182.552 75.6602 175.042 75.6602 165.779C75.6602 156.515 68.1507 149.006 58.8872 149.006C49.6238 149.006 42.1143 156.515 42.1143 165.779C42.1143 175.042 49.6238 182.552 58.8872 182.552Z" fill="#5C00AD"/>
<path d="M58.8872 182.552C68.1507 182.552 75.6602 175.042 75.6602 165.779C75.6602 156.515 68.1507 149.006 58.8872 149.006C49.6238 149.006 42.1143 156.515 42.1143 165.779C42.1143 175.042 49.6238 182.552 58.8872 182.552Z" stroke="#230B00" stroke-width="4.7" stroke-miterlimit="5.5"/>
<path d="M11.1484 259.535L65.5098 269.685L67.4884 174.81C68.0045 168.875 64.1338 163.456 58.4568 162.338C52.7798 161.306 47.2748 165.004 45.5545 170.681L11.2345 259.535H11.1484Z" fill="#00FFF8"/>
<path d="M55.7896 173.95L21.6414 262.288L10.9756 260.309L45.2956 171.456C47.0159 165.779 52.5208 162.08 58.1978 163.112C60.2622 163.456 62.0687 164.488 63.5309 165.865C59.9183 166.983 56.9077 169.993 55.7035 173.95H55.7896Z" fill="#D6B9B2"/>
<path d="M11.1484 259.535L65.5098 269.685L67.4884 174.81C68.0045 168.875 64.1338 163.456 58.4568 162.338C52.7798 161.306 47.2748 165.004 45.5545 170.681L11.2345 259.535H11.1484Z" stroke="#230B00" stroke-width="4.7" stroke-miterlimit="5.5"/>
<path d="M6.24602 310.886L50.8021 319.057C52.4364 319.401 54.0705 318.283 54.4145 316.563L56.995 302.628C57.4251 300.478 59.4037 299.101 61.554 299.359L66.3705 300.048C66.3705 300.048 63.3601 276.996 61.7258 276.651L14.0735 268.48C12.4392 268.136 7.53624 277.426 7.53624 277.426C4.4397 284.307 2.97761 291.79 3.40768 299.273C3.40768 299.273 4.69783 310.455 6.33211 310.799L6.24602 310.886Z" fill="#FFFEDC"/>
<path d="M22.3299 295.919C22.3299 295.919 14.5023 291.016 20.7814 280.436L8.22351 275.189L3.23438 292.22L18.4592 301.596L22.3299 295.919Z" fill="#D6B9B2"/>
<path d="M6.24602 310.886L50.8021 319.057C52.4364 319.401 54.0705 318.283 54.4145 316.563L56.995 302.628C57.4251 300.478 59.4037 299.101 61.554 299.359L66.3705 300.048C66.3705 300.048 63.3601 276.996 61.7258 276.651L14.0735 268.48C12.4392 268.136 7.53624 277.426 7.53624 277.426C4.4397 284.307 2.97761 291.79 3.40768 299.273C3.40768 299.273 4.69783 310.455 6.33211 310.799L6.24602 310.886Z" stroke="#230B00" stroke-width="4.7" stroke-miterlimit="5.5"/>
<path d="M68.5197 328.433C64.477 329.38 60.4343 326.885 59.4881 322.842L55.3595 304.951C54.3274 300.393 57.1657 295.92 61.6385 294.802L63.187 294.457C65.8535 293.855 68.606 295.49 69.2081 298.242L74.1107 319.488C75.0569 323.531 72.5624 327.573 68.5197 328.519V328.433Z" fill="#FFFEDC"/>
<path d="M69.6388 325.853C69.6388 325.853 62.3274 326.628 61.7253 308.134C61.1232 289.555 61.7253 307.532 61.7253 307.532L56.1343 302.973L56.7366 309.166L61.2091 325.079L66.2843 327.918L69.6388 325.939V325.853Z" fill="#D6B9B2"/>
<path d="M68.5197 328.433C64.477 329.38 60.4343 326.885 59.4881 322.842L55.3595 304.951C54.3274 300.393 57.1657 295.92 61.6385 294.802L63.187 294.457C65.8535 293.855 68.606 295.49 69.2081 298.242L74.1107 319.488C75.0568 323.531 72.5624 327.573 68.5197 328.519V328.433Z" stroke="#230B00" stroke-width="4.7" stroke-miterlimit="5.5"/>
<path d="M21.04 338.755C17.4273 339.873 13.7287 338.411 12.0945 335.4C11.4924 334.282 10.9763 333.25 10.3742 332.131L7.5354 327.315C5.55705 323.874 4.26691 320.089 3.75082 316.047L2.46059 305.983C1.68646 303.574 3.14863 300.822 5.8151 299.962L7.27753 299.446C11.6643 297.983 16.3949 300.22 17.7711 304.349L18.2873 310.714C18.6314 315.186 20.0077 319.401 22.2441 323.272L25.2546 328.433C26.8029 331.013 26.373 334.368 24.1366 336.604C23.2764 337.464 22.1581 338.153 20.9539 338.583L21.04 338.755Z" fill="#FFFEDC"/>
<path d="M19.0608 336.088C19.0608 336.088 6.07263 323.444 10.2014 308.133L3.14795 307.531L4.78257 320.95L13.642 337.293L19.0608 339.099L21.3833 337.12L19.0608 336.088Z" fill="#D6B9B2"/>
<path d="M21.04 338.755C17.4273 339.873 13.7287 338.411 12.0945 335.4C11.4924 334.282 10.9763 333.25 10.3742 332.131L7.5354 327.315C5.55705 323.874 4.26691 320.089 3.75082 316.047L2.46059 305.983C1.68645 303.574 3.14863 300.822 5.8151 299.962L7.27753 299.446C11.6643 297.983 16.3949 300.22 17.7711 304.349L18.2873 310.714C18.6314 315.186 20.0077 319.401 22.2441 323.272L25.2546 328.433C26.8029 331.013 26.373 334.368 24.1366 336.604C23.2764 337.464 22.1581 338.153 20.9539 338.583L21.04 338.755Z" stroke="#230B00" stroke-width="4.5" stroke-miterlimit="5.5"/>
<path d="M30.3297 348.13C26.545 348.302 23.2763 345.722 22.5022 342.195C22.2442 340.905 21.9861 339.615 21.642 338.324L20.18 332.561C19.0618 328.433 18.8038 324.046 19.3199 319.831L20.6101 308.993C20.4381 306.241 22.5885 303.832 25.3409 303.746H26.8891C31.5339 303.402 35.5765 307.015 35.8346 311.66L34.7165 318.455C33.9424 323.186 34.2003 328.003 35.4045 332.647L37.0391 338.927C37.8132 342.023 36.695 345.464 33.9425 347.184C32.9103 347.872 31.6199 348.302 30.3297 348.388V348.13Z" fill="#FFFEDC"/>
<path d="M29.0398 342.453C26.7173 337.808 21.5564 325.422 26.8033 314.068L19.2341 313.552L18.6318 327.056L24.6529 344.689L29.642 347.356L32.2225 345.807L31.7063 345.463C30.5881 344.689 29.728 343.657 29.1259 342.453H29.0398Z" fill="#D6B9B2"/>
<path d="M30.3297 348.13C26.545 348.302 23.2763 345.722 22.5022 342.195C22.2442 340.905 21.9861 339.615 21.642 338.324L20.18 332.561C19.0618 328.433 18.8038 324.046 19.3199 319.831L20.6101 308.993C20.4381 306.241 22.5885 303.832 25.3409 303.746H26.8891C31.5339 303.402 35.5765 307.015 35.8346 311.66L34.7165 318.455C33.9424 323.186 34.2003 328.003 35.4045 332.647L37.0391 338.927C37.8132 342.023 36.695 345.464 33.9425 347.184C32.9103 347.872 31.6199 348.302 30.3297 348.388V348.13Z" stroke="#230B00" stroke-width="4.7" stroke-miterlimit="5.5"/>
<path d="M46.415 352.861C42.6304 352.861 39.4475 350.195 38.8454 346.582C38.5874 345.292 38.4155 344.001 38.1575 342.711L36.8673 336.862C35.9211 332.647 35.8352 328.347 36.5233 324.132L38.2436 313.38C38.2436 310.628 40.3937 308.305 43.1462 308.305H44.6947C49.3395 308.219 53.2102 311.918 53.2962 316.563L51.9199 323.272C50.9737 328.003 51.0599 332.82 52.0921 337.464L53.468 343.743C54.1561 346.926 52.8659 350.195 50.0274 351.829C48.9092 352.431 47.7052 352.861 46.3289 352.861H46.415Z" fill="#FFFEDC"/>
<path d="M46.2429 347.098C43.9205 342.454 38.7595 330.067 44.0064 318.713L36.4372 318.197L35.835 331.702L41.856 349.335L46.8452 352.001L49.4256 350.453L48.9094 350.109C47.7912 349.335 46.9311 348.303 46.329 347.098H46.2429Z" fill="#D6B9B2"/>
<path d="M46.415 352.861C42.6304 352.861 39.4475 350.195 38.8454 346.582C38.5874 345.292 38.4155 344.001 38.1575 342.711L36.8673 336.862C35.9211 332.647 35.8352 328.347 36.5233 324.132L38.2436 313.38C38.2436 310.628 40.3937 308.305 43.1462 308.305H44.6947C49.3395 308.219 53.2102 311.918 53.2962 316.563L51.9199 323.272C50.9737 328.003 51.0599 332.82 52.0921 337.464L53.468 343.743C54.1561 346.926 52.8659 350.195 50.0274 351.829C48.9092 352.431 47.7052 352.861 46.3289 352.861H46.415Z" stroke="#230B00" stroke-width="4.7" stroke-miterlimit="5.5"/>
<path d="M20.6975 278.716C30.0732 282.071 39.8788 283.963 49.7705 284.307C49.7705 284.307 66.8015 284.909 66.9735 283.877L67.6615 282.243C69.7259 277.34 70.5861 260.051 69.4679 259.879L54.7592 258.76C44.7815 258.416 34.8897 256.524 25.5141 253.169L11.3215 248.697C10.2033 248.353 4.61261 264.954 4.69863 270.717V271.921C4.5266 272.867 20.6975 278.716 20.6975 278.716Z" fill="#FFFEDC"/>
<path d="M12.181 248.782L25.4277 253.169C23.3634 257.986 17.514 263.147 17.772 269.598V272.781C17.686 274.415 33.7709 279.576 33.7709 279.576C40.3081 281.898 47.1034 283.532 54.0706 284.393C52.0923 284.393 50.7161 284.307 50.7161 284.307C40.8244 283.963 31.0184 282.07 21.6427 278.716C21.6427 278.716 5.47186 272.953 5.7299 271.92V270.716C5.55787 264.953 11.235 248.438 12.2671 248.696L12.181 248.782Z" fill="#D6B9B2"/>
<path d="M20.6975 278.716C30.0732 282.071 39.8788 283.963 49.7705 284.307C49.7705 284.307 66.8015 284.909 66.9735 283.877L67.6615 282.243C69.7259 277.34 70.5861 260.051 69.4679 259.879L54.7592 258.76C44.7815 258.416 34.8897 256.524 25.5141 253.169L11.3215 248.697C10.2033 248.353 4.61261 264.954 4.69863 270.717V271.921C4.5266 272.867 20.6975 278.716 20.6975 278.716Z" stroke="#230B00" stroke-width="4.7" stroke-miterlimit="5.5"/>
<path d="M17.8732 301.522C19.2612 296.682 17.3139 291.877 13.5237 290.79C9.73353 289.703 5.5358 292.746 4.14783 297.586C2.75985 302.427 4.70729 307.232 8.49745 308.318C12.2876 309.405 16.4852 306.363 17.8732 301.522Z" fill="#8900EA"/>
<path d="M17.8732 301.522C19.2612 296.682 17.3139 291.877 13.5237 290.79C9.73353 289.703 5.5358 292.746 4.14783 297.586C2.75985 302.427 4.70729 307.232 8.49745 308.318C12.2876 309.405 16.4852 306.363 17.8732 301.522Z" stroke="#230B00" stroke-width="4.5" stroke-miterlimit="5.5"/>
<path d="M34.9603 306.461C36.3482 301.621 34.4008 296.816 30.6106 295.729C26.8205 294.643 22.6228 297.685 21.2349 302.526C19.8469 307.366 21.7942 312.171 25.5844 313.258C29.3746 314.345 33.5723 311.302 34.9603 306.461Z" fill="#8900EA"/>
<path d="M34.9603 306.461C36.3482 301.621 34.4008 296.816 30.6106 295.729C26.8205 294.643 22.6228 297.685 21.2349 302.526C19.8469 307.366 21.7942 312.171 25.5844 313.258C29.3746 314.345 33.5723 311.302 34.9603 306.461Z" stroke="#230B00" stroke-width="4.5" stroke-miterlimit="5.5"/>
<path d="M52.2435 311.404C53.6314 306.563 51.684 301.759 47.8938 300.672C44.1036 299.585 39.906 302.627 38.5181 307.468C37.1301 312.308 39.0774 317.113 42.8676 318.2C46.6577 319.287 50.8555 316.244 52.2435 311.404Z" fill="#8900EA"/>
<path d="M52.2435 311.404C53.6314 306.563 51.684 301.759 47.8938 300.672C44.1036 299.585 39.906 302.627 38.5181 307.468C37.1301 312.308 39.0774 317.113 42.8676 318.2C46.6577 319.287 50.8555 316.244 52.2435 311.404Z" stroke="#230B00" stroke-width="4.5" stroke-miterlimit="5.5"/>
<path d="M67.2431 310.867C71.085 309.98 73.281 305.283 72.1482 300.377C71.0155 295.471 66.9829 292.212 63.1411 293.099C59.2992 293.986 57.1028 298.683 58.2356 303.589C59.3683 308.495 63.4013 311.754 67.2431 310.867Z" fill="#8900EA"/>
<path d="M67.2431 310.867C71.085 309.98 73.281 305.283 72.1482 300.377C71.0155 295.471 66.9829 292.212 63.1411 293.099C59.2992 293.986 57.1028 298.683 58.2356 303.589C59.3683 308.495 63.4013 311.754 67.2431 310.867Z" stroke="#230B00" stroke-width="4.5" stroke-miterlimit="5.5"/>
<path d="M66.1982 235.364C66.1982 235.364 43.2319 237.601 24.3086 225.559" stroke="#230B00" stroke-width="4.7" stroke-miterlimit="5.5"/>
<path d="M68.0898 200.958C68.0898 200.958 53.9834 205.259 35.0601 193.303" stroke="#230B00" stroke-width="4.7" stroke-miterlimit="5.5"/>
<path d="M155.568 43.7227C154.879 44.2388 154.105 44.5829 153.417 44.7549C152.901 44.8409 152.471 44.9269 151.955 44.9269C147.138 44.7549 143.353 37.9597 143.612 29.7023C143.87 21.4448 147.998 14.9076 152.815 14.9937C154.105 14.9937 155.309 15.5097 156.428 16.4559C158.664 18.3482 160.384 21.8749 160.986 26.0896H174.491C174.491 25.7456 174.405 25.4015 174.319 25.1434C174.319 24.7994 174.233 24.4553 174.147 24.1113C174.147 23.9392 174.147 23.7672 174.061 23.5952C174.061 23.4231 174.061 23.3371 173.975 23.1651C173.975 23.1651 173.975 23.1651 173.975 23.0791C173.975 22.9931 173.975 22.821 173.975 22.735C173.975 22.735 173.975 22.563 173.975 22.477C173.975 22.391 173.975 22.2189 173.889 22.1329C173.889 22.0469 173.889 21.8749 173.803 21.7889V21.6168C173.803 21.5308 173.803 21.3588 173.717 21.2728C173.717 21.1007 173.631 20.9287 173.545 20.8427C173.373 20.3266 173.201 19.8965 172.943 19.3804C172.943 19.2084 172.771 19.0364 172.771 18.9504C172.771 18.7783 172.684 18.6923 172.598 18.5203C172.598 18.5203 172.599 18.3482 172.513 18.2622C172.513 18.2622 172.513 18.0902 172.427 18.0042C172.427 17.8322 172.34 17.7461 172.254 17.5741C172.254 17.4881 172.169 17.4021 172.083 17.2301C172.083 17.2301 172.083 17.2301 172.083 17.144C172.083 17.058 171.996 16.972 171.91 16.886C171.48 16.1119 171.05 15.3377 170.534 14.6496C170.534 14.5636 170.362 14.3915 170.276 14.3055C170.276 14.3055 170.276 14.2195 170.19 14.1335C170.19 14.1335 170.104 13.9615 170.018 13.8755C170.018 13.8755 170.018 13.8755 170.018 13.7894C169.932 13.7034 169.846 13.5314 169.76 13.4454C169.674 13.3594 169.588 13.1873 169.416 13.1013C169.33 13.0153 169.158 12.8433 169.072 12.7573C168.986 12.6712 168.814 12.4992 168.728 12.3272C168.642 12.1552 168.47 12.0691 168.384 11.9831C168.298 11.8971 168.126 11.7251 168.04 11.6391C167.954 11.553 167.782 11.381 167.696 11.295C167.61 11.209 167.438 11.037 167.352 10.9509C167.266 10.8649 167.093 10.6929 167.007 10.6069C166.921 10.5209 166.749 10.4349 166.663 10.3488C166.577 10.3488 166.492 10.1768 166.406 10.0908C166.233 10.0048 166.061 9.83274 165.889 9.74673C165.803 9.74673 165.717 9.5747 165.545 9.48868C165.373 9.40267 165.201 9.23064 165.029 9.14462C164.857 9.05861 164.771 8.97259 164.599 8.88658C164.169 8.62853 163.825 8.37049 163.395 8.19846C163.395 8.19846 163.223 8.11244 163.137 8.02643C163.137 8.02643 163.051 8.02643 162.965 7.94041C162.965 7.94041 162.793 7.94041 162.793 7.85439C162.793 7.85439 162.621 7.8544 162.535 7.76838C162.535 7.76838 162.363 7.76838 162.363 7.68236C162.277 7.68236 162.191 7.68236 162.105 7.59635C161.761 7.42432 161.416 7.25229 161.072 7.16627C160.9 7.16627 160.814 7.08026 160.642 6.99424C160.642 6.99424 160.557 6.99424 160.471 6.99424C160.385 6.99424 160.213 6.90823 160.04 6.82221C159.868 6.82221 159.696 6.7362 159.524 6.65018C159.352 6.65018 159.266 6.65018 159.094 6.56417C159.094 6.56417 159.008 6.56417 158.922 6.56417C158.922 6.56417 158.75 6.56417 158.664 6.56417C158.578 6.56417 158.492 6.56417 158.406 6.56417C158.406 6.56417 158.32 6.56417 158.234 6.56417C158.234 6.56417 158.062 6.56417 157.976 6.56417C157.804 6.56417 157.718 6.56417 157.546 6.56417C157.46 6.56417 157.288 6.56417 157.202 6.56417H157.03C156.944 6.56417 156.772 6.56417 156.6 6.56417C156.428 6.56417 156.256 6.56417 156.17 6.56417C155.654 6.56417 155.223 6.56417 154.707 6.47815C143.095 6.13409 133.376 16.3699 132.516 29.4442C132.516 29.5302 132.516 29.6162 132.516 29.7883C132.516 29.9603 132.516 30.2183 132.516 30.3904C132.516 30.5624 132.516 30.8204 132.516 30.9925V31.3365C132.516 44.4969 141.719 55.2488 153.331 55.5928C153.847 55.5928 154.277 55.5928 154.793 55.5928C154.966 55.5928 155.138 55.5928 155.31 55.5928C155.31 55.5928 155.482 55.5928 155.568 55.5928C155.568 55.5928 155.739 55.5928 155.825 55.5928C155.825 55.5928 155.912 55.5928 155.998 55.5928C156.084 55.5928 156.256 55.5928 156.342 55.5928C156.514 55.5928 156.6 55.5928 156.772 55.5928C156.772 55.5928 156.772 55.5928 156.858 55.5928C156.944 55.5928 157.116 55.5928 157.202 55.5928C157.202 55.5928 157.202 55.5928 157.288 55.5928C157.374 55.5928 157.46 55.5928 157.546 55.5928C157.632 55.5928 157.718 55.5928 157.804 55.5928C157.976 55.5928 158.062 55.5928 158.234 55.5068C158.406 55.5068 158.578 55.5068 158.75 55.4208C158.922 55.4208 159.18 55.3348 159.352 55.2488C159.438 55.2488 159.61 55.2488 159.696 55.1627C159.868 55.1627 159.954 55.0767 160.126 54.9907C160.126 54.9907 160.298 54.9907 160.384 54.9907C160.47 54.9907 160.556 54.9907 160.642 54.9047C160.642 54.9047 160.729 54.9047 160.815 54.9047C160.901 54.9047 160.986 54.9047 161.159 54.8187C161.159 54.8187 161.159 54.8187 161.245 54.8187C161.331 54.8187 161.503 54.7327 161.589 54.6467C161.761 54.6467 161.847 54.5606 162.019 54.4746C162.363 54.3026 162.707 54.1306 163.051 53.9585C163.223 53.9585 163.309 53.7865 163.481 53.7005C163.653 53.6145 163.825 53.5285 163.997 53.4424C164.083 53.4424 164.169 53.2704 164.341 53.2704C164.427 53.2704 164.513 53.0984 164.685 53.0984C164.685 53.0984 164.857 53.0124 164.943 52.9263C165.029 52.9263 165.201 52.7543 165.287 52.6683C165.459 52.5823 165.545 52.4963 165.717 52.3242C165.889 52.2382 165.975 52.1522 166.147 51.9802C166.233 51.8942 166.406 51.8082 166.492 51.7221C166.578 51.6361 166.75 51.5501 166.836 51.3781C166.922 51.3781 167.007 51.206 167.093 51.12C167.179 51.034 167.351 50.948 167.437 50.776C167.437 50.776 167.524 50.69 167.61 50.6039C167.696 50.5179 167.782 50.4319 167.954 50.2599C168.04 50.1739 168.212 50.0018 168.298 49.9158C168.384 49.8298 168.47 49.6578 168.642 49.5718C168.814 49.3997 168.9 49.3137 169.072 49.1417C169.158 48.9697 169.33 48.8836 169.416 48.7116C169.502 48.5396 169.674 48.4536 169.76 48.2815C169.846 48.1955 169.932 48.0235 170.104 47.8515C170.104 47.7654 170.276 47.6794 170.362 47.5074C170.534 47.3354 170.62 47.1633 170.706 46.9913C170.792 46.8193 170.878 46.7333 170.964 46.5612C171.05 46.3892 171.136 46.3032 171.222 46.1312C171.308 45.9591 171.394 45.7871 171.48 45.7011C171.48 45.7011 171.567 45.529 171.653 45.443C171.653 45.443 171.738 45.271 171.824 45.185C171.91 45.013 171.997 44.8409 172.083 44.6689C172.083 44.4969 172.254 44.3248 172.34 44.1528C172.34 43.9808 172.512 43.8087 172.598 43.6367C172.598 43.4647 172.771 43.2927 172.857 43.1206C172.857 42.9486 173.028 42.8626 173.028 42.6905C173.028 42.5185 173.201 42.2605 173.287 42.0884C173.287 41.9164 173.459 41.7444 173.459 41.5723C173.459 41.4003 173.545 41.2283 173.631 41.1423C173.631 41.0563 173.631 40.9702 173.717 40.8842C173.717 40.7122 173.803 40.6262 173.889 40.4541C173.889 40.2821 173.889 40.1961 173.975 40.0241C173.975 39.852 173.975 39.766 174.061 39.594C174.061 39.594 174.061 39.422 174.061 39.336V38.9059C174.233 38.8199 174.233 38.6478 174.319 38.5618C174.491 37.9597 174.577 37.3576 174.663 36.8415H161.072C160.212 40.7982 158.32 43.9808 156.084 45.6151L155.568 43.7227Z" fill="#8900EA"/>
<path d="M174.147 34.9492C174.061 35.5514 173.889 36.1535 173.803 36.6696C173.803 36.7556 173.803 36.9276 173.717 37.0136C173.717 37.1856 173.717 37.3577 173.631 37.4437C173.631 37.4437 173.631 37.6157 173.631 37.7017C173.631 37.8738 173.631 37.9598 173.545 38.1318C173.545 38.3038 173.545 38.3899 173.373 38.5619C173.373 38.7339 173.287 38.8199 173.201 38.992C173.201 39.078 173.2 39.164 173.114 39.25C173.114 39.422 173.029 39.5941 172.943 39.6801C172.943 39.8521 172.77 40.0241 172.77 40.1962C172.77 40.3682 172.599 40.6263 172.513 40.7983C172.513 40.9703 172.34 41.0563 172.34 41.2284C172.34 41.4004 172.169 41.5724 172.083 41.7444C172.083 41.9165 171.91 42.0885 171.824 42.2605C171.824 42.4326 171.652 42.6046 171.566 42.7766C171.566 42.9487 171.394 43.1207 171.308 43.2927C171.308 43.2927 171.222 43.4648 171.136 43.5508C171.136 43.5508 171.05 43.7228 170.964 43.8088C170.878 43.9808 170.792 44.1529 170.706 44.2389C170.62 44.4109 170.534 44.4969 170.448 44.669C170.362 44.841 170.276 44.927 170.19 45.099C170.104 45.2711 169.932 45.4431 169.846 45.6151C169.846 45.7011 169.674 45.7872 169.588 45.9592C169.502 46.1312 169.416 46.2172 169.244 46.3893C169.158 46.5613 168.986 46.6473 168.9 46.8193C168.814 46.9914 168.642 47.0774 168.556 47.2494C168.47 47.4215 168.298 47.5935 168.126 47.6795C168.04 47.7655 167.954 47.9375 167.782 48.0236C167.696 48.1096 167.523 48.2816 167.437 48.3676C167.351 48.4536 167.265 48.5396 167.093 48.7117C167.093 48.7117 167.008 48.7977 166.922 48.8837C166.836 48.9697 166.749 49.0557 166.577 49.2278C166.491 49.2278 166.405 49.3998 166.319 49.4858C166.233 49.5718 166.061 49.7439 165.975 49.8299C165.889 49.9159 165.717 50.0019 165.631 50.0879C165.459 50.1739 165.373 50.26 165.201 50.432C165.029 50.518 164.943 50.604 164.771 50.776C164.685 50.776 164.513 50.9481 164.427 51.0341C164.427 51.0341 164.255 51.1201 164.169 51.2061C164.083 51.2061 163.997 51.3781 163.825 51.3781C163.739 51.3781 163.653 51.5502 163.481 51.5502C163.309 51.6362 163.137 51.7222 162.965 51.8082C162.793 51.8082 162.707 51.9803 162.535 52.0663C162.191 52.2383 161.846 52.4103 161.502 52.5824C161.33 52.5824 161.244 52.6684 161.072 52.7544C160.986 52.7544 160.814 52.8404 160.728 52.9264C160.728 52.9264 160.728 52.9264 160.642 52.9264C160.556 52.9264 160.47 53.0124 160.298 53.0124H160.126L159.868 53.1845C159.868 53.1845 159.696 53.1845 159.61 53.1845C159.438 53.1845 159.352 53.2705 159.18 53.3565C159.094 53.3565 158.922 53.3565 158.836 53.4425C158.664 53.4425 158.406 53.5285 158.234 53.6145C158.062 53.6145 157.89 53.6145 157.718 53.7006C157.546 53.7006 157.46 53.7006 157.288 53.7866C157.202 53.7866 157.116 53.7866 157.03 53.7866C156.944 53.7866 156.858 53.7866 156.772 53.7866C156.772 53.7866 156.771 53.7866 156.685 53.7866C156.599 53.7866 156.427 53.7866 156.341 53.7866C156.341 53.7866 156.341 53.7866 156.255 53.7866C156.083 53.7866 155.997 53.7866 155.825 53.7866C155.739 53.7866 155.567 53.7866 155.481 53.7866C155.481 53.7866 155.396 53.7866 155.31 53.7866C155.31 53.7866 155.137 53.7866 155.051 53.7866C155.051 53.7866 154.879 53.7866 154.793 53.7866C154.621 53.7866 154.449 53.7866 154.363 53.7866C153.847 53.7866 153.417 53.7866 152.901 53.7866C151.955 53.7866 151.009 53.7006 150.149 53.5285C139.913 51.7222 132.171 41.6584 132.085 29.5303V29.1862C132.085 29.0142 132.085 28.7562 132.085 28.5841C132.085 28.4121 132.085 28.154 132.085 27.982C132.085 27.896 132.085 27.81 132.085 27.638C132.86 16.0259 140.601 6.65025 150.407 4.92995C151.697 4.6719 152.987 4.58589 154.277 4.6719C154.793 4.6719 155.224 4.6719 155.74 4.75792C155.912 4.75792 156.084 4.75792 156.17 4.75792C156.342 4.75792 156.428 4.75792 156.6 4.75792H156.772C156.858 4.75792 157.03 4.75792 157.116 4.75792C157.288 4.75792 157.374 4.75792 157.546 4.75792C157.546 4.75792 157.718 4.75792 157.804 4.75792C157.804 4.75792 157.89 4.75792 157.976 4.75792C158.062 4.75792 158.148 4.75792 158.234 4.75792C158.234 4.75792 158.406 4.75792 158.492 4.75792C158.492 4.75792 158.578 4.75792 158.664 4.75792C158.836 4.75792 158.922 4.75792 159.094 4.84393C159.266 4.84393 159.438 4.92995 159.61 5.01596C159.782 5.01596 159.868 5.10198 160.04 5.188C160.04 5.188 160.126 5.188 160.212 5.188C160.384 5.188 160.47 5.27401 160.642 5.36003C160.986 5.53206 161.331 5.61807 161.675 5.7901C161.761 5.7901 161.846 5.7901 161.932 5.87612C161.932 5.87612 162.105 5.87612 162.105 5.96213C162.105 5.96213 162.277 5.96213 162.363 6.04815C162.363 6.04815 162.535 6.04815 162.535 6.13416C162.535 6.22018 162.707 6.13416 162.707 6.22018C162.793 6.22018 162.879 6.30619 162.965 6.39221C163.395 6.65025 163.739 6.82228 164.169 7.08033C164.341 7.08033 164.427 7.25236 164.599 7.33838C164.771 7.42439 164.943 7.59642 165.115 7.68244C165.201 7.68244 165.287 7.85447 165.459 7.94048C165.631 8.0265 165.803 8.19853 165.975 8.28454C166.061 8.28454 166.147 8.45657 166.233 8.54259C166.319 8.6286 166.491 8.71462 166.577 8.80063C166.749 8.88665 166.836 9.05868 166.922 9.14469C167.008 9.23071 167.18 9.40274 167.266 9.48875C167.352 9.57477 167.524 9.7468 167.61 9.83282C167.696 9.91883 167.868 10.0909 167.954 10.1769C168.04 10.3489 168.211 10.4349 168.298 10.607C168.384 10.693 168.556 10.865 168.642 10.951C168.728 11.037 168.9 11.2091 168.986 11.2951C169.072 11.3811 169.158 11.5531 169.33 11.6391C169.416 11.7252 169.502 11.8972 169.588 11.9832C169.588 11.9832 169.588 11.9832 169.588 12.0692C169.588 12.0692 169.674 12.2412 169.76 12.3273C169.76 12.3273 169.76 12.4133 169.846 12.4993C169.846 12.5853 170.018 12.7573 170.104 12.8433C170.62 13.5315 171.05 14.3056 171.48 15.0797C171.48 15.1658 171.566 15.2518 171.652 15.3378C171.652 15.3378 171.652 15.3378 171.652 15.4238C171.652 15.5098 171.738 15.5958 171.824 15.7679C171.824 15.9399 171.996 16.0259 171.996 16.1979C171.996 16.1979 171.996 16.37 172.083 16.456C172.083 16.456 172.082 16.628 172.168 16.714C172.168 16.8861 172.254 16.9721 172.34 17.1441C172.34 17.3161 172.513 17.4882 172.513 17.5742C172.685 18.0903 172.942 18.5204 173.114 19.0364C173.114 19.2085 173.201 19.3805 173.287 19.4665C173.287 19.5525 173.287 19.7246 173.373 19.8106V19.9826C173.373 20.0686 173.372 20.2407 173.458 20.3267C173.458 20.4127 173.459 20.5847 173.545 20.6707C173.545 20.6707 173.545 20.8428 173.545 20.9288C173.545 21.0148 173.545 21.1868 173.545 21.2728C173.545 21.2728 173.545 21.2728 173.545 21.3589C173.545 21.5309 173.545 21.6169 173.631 21.7889C173.631 21.961 173.631 22.133 173.717 22.305C173.717 22.6491 173.888 22.9931 173.888 23.3372C173.888 23.6813 173.975 24.0253 174.061 24.2834H160.556C159.954 19.9826 158.32 16.456 155.998 14.6497C154.879 13.7895 153.675 13.2734 152.385 13.1874C151.18 13.1874 149.977 13.5315 148.858 14.3056C145.676 16.456 143.267 21.7029 143.095 27.896C142.923 34.2611 145.074 39.7661 148.256 42.0025C149.202 42.6906 150.235 43.0347 151.439 43.1207C151.955 43.1207 152.471 43.1207 152.901 42.9487C153.675 42.7766 154.363 42.4326 155.051 41.9165C157.288 40.2822 159.18 37.0996 160.04 33.1429H173.631L174.147 34.9492Z" stroke="#230B00" stroke-width="3.7" stroke-miterlimit="5.5"/>
<path d="M149.804 16.4557C152.041 18.348 153.761 21.8747 154.363 26.0894H160.986C160.384 21.7887 158.75 18.262 156.427 16.4557C155.309 15.5956 154.105 15.0795 152.815 14.9935C151.61 14.9935 150.407 15.3375 149.288 16.1117C149.46 16.1977 149.632 16.3697 149.718 16.4557H149.804ZM148.944 43.7225C148.944 43.7225 148.858 43.7225 148.772 43.8085C149.718 44.4967 150.75 44.8407 151.954 44.9267C152.471 44.9267 152.987 44.9267 153.417 44.7547C154.191 44.5827 154.879 44.2386 155.567 43.7225C157.804 42.0882 159.696 38.9057 160.556 34.949H153.933C153.073 38.9057 151.18 42.0882 148.944 43.7225ZM131.655 30.3042V29.9601C131.655 29.7881 131.655 29.53 131.655 29.358C131.655 29.186 131.655 28.9279 131.655 28.7559C131.655 28.6699 131.655 28.5839 131.655 28.4118C132.429 16.7998 140.171 7.42412 149.976 5.70382C149.976 5.70382 149.976 5.70382 149.89 5.70382H149.718C149.546 5.70382 149.46 5.70382 149.288 5.70382C149.116 5.70382 148.944 5.70382 148.858 5.70382C148.342 5.70382 147.912 5.70382 147.396 5.6178C135.784 5.27374 125.978 15.5095 125.204 28.5839C125.204 28.6699 125.204 28.7559 125.204 28.9279C125.204 29.0999 125.204 29.358 125.204 29.53C125.204 29.7021 125.204 29.9601 125.204 30.1321V30.4762C125.204 43.6365 134.407 54.3884 146.02 54.7325C146.536 54.7325 147.052 54.7325 147.482 54.7325C147.654 54.7325 147.826 54.7325 147.998 54.7325C147.998 54.7325 148.17 54.7325 148.256 54.7325C148.342 54.7325 148.428 54.7325 148.514 54.7325C148.514 54.7325 148.6 54.7325 148.686 54.7325C148.772 54.7325 148.944 54.7325 149.03 54.7325C149.202 54.7325 149.288 54.7325 149.46 54.7325C149.46 54.7325 149.46 54.7325 149.546 54.7325C149.632 54.7325 149.718 54.7325 149.804 54.7325C139.568 52.9262 131.827 42.8624 131.741 30.7342L131.655 30.3042Z" fill="#8900EA"/>
<path d="M149.804 16.4557C152.041 18.348 153.761 21.8747 154.363 26.0894H160.986C160.384 21.7887 158.75 18.262 156.427 16.4557C155.309 15.5956 154.105 15.0795 152.815 14.9935C151.61 14.9935 150.407 15.3375 149.288 16.1117C149.46 16.1977 149.632 16.3697 149.718 16.4557H149.804ZM148.944 43.7225C148.944 43.7225 148.858 43.7225 148.772 43.8085C149.718 44.4967 150.75 44.8407 151.954 44.9267C152.471 44.9267 152.987 44.9267 153.417 44.7547C154.191 44.5827 154.879 44.2386 155.567 43.7225C157.804 42.0882 159.696 38.9057 160.556 34.949H153.933C153.073 38.9057 151.18 42.0882 148.944 43.7225ZM131.655 30.3042V29.9601C131.655 29.7881 131.655 29.53 131.655 29.358C131.655 29.186 131.655 28.9279 131.655 28.7559C131.655 28.6699 131.655 28.5839 131.655 28.4118C132.429 16.7998 140.171 7.42412 149.976 5.70382C149.976 5.70382 149.976 5.70382 149.89 5.70382H149.718C149.546 5.70382 149.46 5.70382 149.288 5.70382C149.116 5.70382 148.944 5.70382 148.858 5.70382C148.342 5.70382 147.912 5.70382 147.396 5.6178C135.784 5.27374 125.978 15.5095 125.204 28.5839C125.204 28.6699 125.204 28.7559 125.204 28.9279C125.204 29.0999 125.204 29.358 125.204 29.53C125.204 29.7021 125.204 29.9601 125.204 30.1321V30.4762C125.204 43.6365 134.407 54.3884 146.02 54.7325C146.536 54.7325 147.052 54.7325 147.482 54.7325C147.654 54.7325 147.826 54.7325 147.998 54.7325C147.998 54.7325 148.17 54.7325 148.256 54.7325C148.342 54.7325 148.428 54.7325 148.514 54.7325C148.514 54.7325 148.6 54.7325 148.686 54.7325C148.772 54.7325 148.944 54.7325 149.03 54.7325C149.202 54.7325 149.288 54.7325 149.46 54.7325C149.46 54.7325 149.46 54.7325 149.546 54.7325C149.632 54.7325 149.718 54.7325 149.804 54.7325C139.568 52.9262 131.827 42.8624 131.741 30.7342L131.655 30.3042Z" fill="#D6B9B2"/>
<path d="M149.804 16.4557C152.041 18.348 153.761 21.8747 154.363 26.0894H160.986C160.384 21.7887 158.75 18.262 156.427 16.4557C155.309 15.5956 154.105 15.0795 152.815 14.9935C151.61 14.9935 150.407 15.3375 149.288 16.1117C149.46 16.1977 149.632 16.3697 149.718 16.4557H149.804ZM148.944 43.7225C148.944 43.7225 148.858 43.7225 148.772 43.8085C149.718 44.4967 150.75 44.8407 151.954 44.9267C152.471 44.9267 152.987 44.9267 153.417 44.7547C154.191 44.5827 154.879 44.2386 155.567 43.7225C157.804 42.0882 159.696 38.9057 160.556 34.949H153.933C153.073 38.9057 151.18 42.0882 148.944 43.7225ZM131.655 30.3042V29.9601C131.655 29.7881 131.655 29.53 131.655 29.358C131.655 29.186 131.655 28.9279 131.655 28.7559C131.655 28.6699 131.655 28.5839 131.655 28.4118C132.429 16.7998 140.171 7.42412 149.976 5.70382C149.976 5.70382 149.976 5.70382 149.89 5.70382H149.718C149.546 5.70382 149.46 5.70382 149.288 5.70382C149.116 5.70382 148.944 5.70382 148.858 5.70382C148.342 5.70382 147.912 5.70382 147.396 5.6178C135.784 5.27374 125.978 15.5095 125.204 28.5839C125.204 28.6699 125.204 28.7559 125.204 28.9279C125.204 29.0999 125.204 29.358 125.204 29.53C125.204 29.7021 125.204 29.9601 125.204 30.1321V30.4762C125.204 43.6365 134.407 54.3884 146.02 54.7325C146.536 54.7325 147.052 54.7325 147.482 54.7325C147.654 54.7325 147.826 54.7325 147.998 54.7325C147.998 54.7325 148.17 54.7325 148.256 54.7325C148.342 54.7325 148.428 54.7325 148.514 54.7325C148.514 54.7325 148.6 54.7325 148.686 54.7325C148.772 54.7325 148.944 54.7325 149.03 54.7325C149.202 54.7325 149.288 54.7325 149.46 54.7325C149.46 54.7325 149.46 54.7325 149.546 54.7325C149.632 54.7325 149.718 54.7325 149.804 54.7325C139.568 52.9262 131.827 42.8624 131.741 30.7342L131.655 30.3042Z" stroke="#230B00" stroke-width="3.7" stroke-miterlimit="5.5"/>
<path d="M182.578 131.716C188.231 131.716 192.813 124.63 192.813 115.889C192.813 107.148 188.231 100.062 182.578 100.062C176.924 100.062 172.342 107.148 172.342 115.889C172.342 124.63 176.924 131.716 182.578 131.716Z" fill="#00FFF8"/>
<path d="M122.883 132.061C128.536 132.061 133.118 124.975 133.118 116.234C133.118 107.493 128.536 100.407 122.883 100.407C117.23 100.407 112.647 107.493 112.647 116.234C112.647 124.975 117.23 132.061 122.883 132.061Z" fill="#00FFF8"/>
<path d="M107.228 80.3651L111.615 76.8385C116.518 72.9678 123.055 70.9035 129.334 70.7314C135.613 70.7314 136.043 79.591 129.764 80.1071C129.248 80.1071 128.732 80.1071 128.302 79.9351C126.667 79.505 125.033 79.1609 123.485 78.9889C120.216 78.6448 116.776 79.1609 113.593 80.2791L108.346 82.2575C107.056 82.7736 106.11 81.0533 107.142 80.1931L107.228 80.3651Z" fill="#00FFF8"/>
<path d="M195.738 81.4834L190.491 79.505C187.308 78.3868 183.868 77.8707 180.599 78.2148C179.051 78.3868 177.416 78.7309 175.782 79.1609C173.288 79.8491 170.707 78.3868 170.019 75.8064C169.159 72.7098 171.825 69.5273 174.922 69.8713C179.051 70.0433 183.523 70.9035 187.222 72.7098C190.491 74.1721 194.103 77.2686 196.856 79.419C197.888 80.2792 196.856 81.9134 195.652 81.4834H195.738Z" fill="#00FFF8"/>
</svg>
