<svg width="286" height="259" viewBox="0 0 286 259" fill="none" xmlns="http://www.w3.org/2000/svg">
<path d="M278.082 129.35C278.082 199.534 221.361 256.35 151.293 256.35C106.257 256.35 86.856 243.086 64.1257 221.571C39.7272 198.385 24.5042 165.695 24.5042 129.35C24.5042 93.0047 33.5754 75.4585 48.9027 54.4659C71.9457 22.8204 109.273 2.3501 151.293 2.3501C221.361 2.3501 278.082 59.1659 278.082 129.35Z" fill="#FFFEDC"/>
<path d="M278.082 129.35C278.082 199.534 221.361 256.35 151.293 256.35C105.358 256.35 86.8559 243.086 64.1257 221.571C39.7272 198.385 24.5042 165.696 24.5042 129.35C24.5042 129.35 278.082 126.426 278.082 129.35Z" fill="#8900EA"/>
<path d="M278.082 129.35C278.082 199.534 221.361 256.35 151.293 256.35C107.606 256.35 86.8559 243.086 64.1257 221.571C39.7272 198.385 24.5042 165.696 24.5042 129.35C24.5042 129.35 278.082 126.426 278.082 129.35Z" stroke="#230B00" stroke-width="4.7" stroke-miterlimit="5.5"/>
<path d="M182.156 6.11011C206.033 27.6249 213.645 59.7927 213.645 94.4671C213.645 159.429 198.526 225.54 133.672 225.54C68.8177 225.54 74.0311 213.32 52.9691 193.372C45.0448 185.852 38.2675 177.288 32.637 167.993C39.1016 188.255 50.6753 206.323 65.6897 220.631C88.0029 241.833 118.24 254.888 151.502 254.888C220.422 254.888 276.309 198.908 276.309 129.872C276.309 60.837 247.636 24.7006 182.052 6.11011H182.156Z" fill="#D6B9B2"/>
<path d="M278.082 129.35C278.082 199.534 221.361 256.35 151.293 256.35C114.35 256.35 86.856 243.086 64.1257 221.571C39.7272 198.385 24.5042 165.695 24.5042 129.35C24.5042 93.0047 33.5754 75.4585 48.9027 54.4659C71.9457 22.8204 109.273 2.3501 151.293 2.3501C221.361 2.3501 278.082 59.1659 278.082 129.35Z" stroke="#230B00" stroke-width="4.7" stroke-miterlimit="5.5"/>
<path d="M141.91 217.08C152.851 217.08 161.721 206.513 161.721 193.477C161.721 180.441 152.851 169.873 141.91 169.873C130.969 169.873 122.099 180.441 122.099 193.477C122.099 206.513 130.969 217.08 141.91 217.08Z" fill="#5E0000"/>
<path d="M161.721 188.15C159.322 187.21 156.82 186.792 154.109 186.792C142.327 186.792 132.839 196.296 132.839 208.098C132.839 219.9 133.151 212.38 133.777 214.26C140.971 216.349 161.304 219.482 161.721 188.15Z" fill="#DB6565"/>
<path d="M141.91 217.08C152.851 217.08 161.721 206.513 161.721 193.477C161.721 180.441 152.851 169.873 141.91 169.873C130.969 169.873 122.099 180.441 122.099 193.477C122.099 206.513 130.969 217.08 141.91 217.08Z" stroke="#230B00" stroke-width="4.7" stroke-miterlimit="5.5" stroke-linecap="round"/>
<path d="M222.821 180.317L20.334 196.088C17.7273 196.297 15.3292 194.73 14.2865 192.119C-1.56213 152.536 -1.56213 107.626 14.2865 68.0433C15.3292 65.4323 17.8316 63.7614 20.5425 64.0747L223.759 87.2608L222.925 180.422L222.821 180.317Z" fill="#230B00" stroke="#230B00" stroke-width="4.8" stroke-miterlimit="5.5"/>
<path opacity="0.2" d="M59.5384 69.5059C59.5384 69.5059 115.738 145.017 52.2397 192.224L124.393 186.584C124.393 186.584 80.6004 142.614 121.786 77.443L59.5384 69.4014V69.5059Z" fill="white"/>
<path d="M222.821 180.317L20.334 196.088C17.7273 196.297 15.3292 194.73 14.2865 192.119C-1.56213 152.536 -1.56213 107.626 14.2865 68.0433C15.3292 65.4323 17.8316 63.7614 20.5425 64.0747L223.759 87.2608L222.925 180.422L222.821 180.317Z" stroke="#230B00" stroke-width="4.7" stroke-miterlimit="5.5"/>
<path d="M231.579 181.78C225.532 183.347 219.588 179.169 217.295 171.649C213.645 159.743 211.873 147.21 211.873 134.677C211.873 122.144 213.645 109.507 217.295 97.7053L217.503 97.0786C219.693 89.8722 225.323 85.5902 231.162 86.7391L271.305 94.7807C264.632 94.7807 259.21 104.807 259.21 131.753C259.21 158.698 264.736 169.351 270.784 171.022C271.096 171.022 231.579 181.884 231.579 181.884V181.78Z" fill="#FFFEDC"/>
<g style="mix-blend-mode:multiply">
<path d="M213.645 137.393C223.446 144.286 237.314 145.747 248.575 142.719C252.641 141.57 256.812 139.69 260.253 136.974V160.16C253.684 154.938 245.134 152.85 236.897 152.85C228.868 152.85 220.318 154.834 213.541 159.638V137.393H213.645Z" fill="#D6B9B2"/>
</g>
<path d="M283.4 131.544C283.4 148.045 281.732 159.22 278.812 165.382C277.77 167.576 276.623 169.038 275.371 169.978C274.433 170.709 273.39 171.022 272.243 171.022C271.096 171.022 271.826 171.022 271.618 171.022C265.153 170.187 259.21 157.549 259.21 131.544C259.21 105.538 264.632 94.5718 271.305 94.5718C277.978 94.5718 272.973 94.6762 273.703 95.094C275.58 95.9295 277.352 97.7048 278.812 100.629C281.627 106.269 283.4 116.191 283.4 131.544Z" fill="#FFFEDC"/>
<path d="M283.4 131.544C283.4 148.045 281.732 159.22 278.812 165.382C277.77 167.576 276.623 169.038 275.371 169.978C274.433 170.709 273.39 171.022 272.243 171.022C271.096 171.022 271.826 171.022 271.618 171.022C265.153 170.187 259.21 157.549 259.21 131.544C259.21 105.538 264.632 94.5718 271.305 94.5718C277.978 94.5718 272.973 94.6762 273.703 95.094C275.58 95.9295 277.352 97.7048 278.812 100.629C281.627 106.269 283.4 116.191 283.4 131.544Z" fill="#D6B9B2"/>
<path d="M231.579 181.78C225.532 183.347 219.588 179.169 217.295 171.649C213.645 159.743 211.873 147.21 211.873 134.677C211.873 122.144 213.645 109.507 217.295 97.7053L217.503 97.0786C219.693 89.8722 225.323 85.5902 231.162 86.7391L271.305 94.7807C264.632 94.7807 259.21 104.807 259.21 131.753C259.21 158.698 264.736 169.351 270.784 171.022C271.096 171.022 231.579 181.884 231.579 181.884V181.78Z" stroke="#230B00" stroke-width="4.7" stroke-miterlimit="5.5"/>
<path d="M283.4 131.544C283.4 148.045 281.732 159.22 278.812 165.382C277.77 167.576 276.623 169.038 275.371 169.978C274.433 170.709 273.39 171.022 272.243 171.022C271.096 171.022 271.826 171.022 271.618 171.022C265.153 170.187 259.21 157.549 259.21 131.544C259.21 105.538 264.632 94.5718 271.305 94.5718C277.978 94.5718 272.973 94.6762 273.703 95.094C275.58 95.9295 277.352 97.7048 278.812 100.629C281.627 106.269 283.4 116.191 283.4 131.544Z" stroke="#230B00" stroke-width="4.7" stroke-miterlimit="5.5"/>
<path d="M117.615 52.5862C116.781 53.2128 115.843 53.6308 115.009 53.8397C114.383 53.9441 113.862 54.0482 113.236 54.0482C107.397 53.8394 102.809 45.5889 103.122 35.5625C103.435 25.5362 108.44 17.5986 114.279 17.7031C115.843 17.7031 117.303 18.3294 118.658 19.4783C121.369 21.776 123.454 26.0582 124.184 31.1758H140.554C140.554 30.7581 140.45 30.3402 140.346 30.0269C140.346 29.6091 140.241 29.1917 140.137 28.7739C140.137 28.565 140.137 28.356 140.033 28.1472C140.033 27.9383 140.033 27.8338 139.929 27.6249C139.929 27.6249 139.929 27.6248 139.929 27.5204C139.929 27.416 139.929 27.2072 139.929 27.1027C139.929 27.1027 139.929 26.8936 139.929 26.7891C139.929 26.6847 139.929 26.4759 139.824 26.3715C139.824 26.267 139.824 26.0582 139.72 25.9538V25.7447C139.72 25.6403 139.72 25.4315 139.616 25.327C139.616 25.1182 139.511 24.9093 139.407 24.8048C139.199 24.1782 138.99 23.6563 138.677 23.0297C138.677 22.8208 138.469 22.6119 138.469 22.5075C138.469 22.2986 138.365 22.1941 138.26 21.9853C138.26 21.9853 138.26 21.7761 138.156 21.6716C138.156 21.6716 138.156 21.4629 138.052 21.3585C138.052 21.1496 137.947 21.0452 137.843 20.8363C137.843 20.7319 137.739 20.6275 137.635 20.4186C137.635 20.4186 137.635 20.4185 137.635 20.3141C137.635 20.2097 137.53 20.1049 137.426 20.0005C136.905 19.0605 136.383 18.1209 135.758 17.2854C135.758 17.181 135.549 16.9717 135.445 16.8672C135.445 16.8672 135.445 16.7631 135.341 16.6587C135.341 16.6587 135.237 16.4495 135.132 16.345C135.132 16.345 135.132 16.3455 135.132 16.241C135.028 16.1366 134.924 15.9273 134.819 15.8228C134.715 15.7184 134.611 15.5096 134.402 15.4052C134.298 15.3007 134.09 15.092 133.985 14.9875C133.881 14.8831 133.673 14.6742 133.568 14.4653C133.464 14.3609 133.255 14.1521 133.151 14.0477C133.047 13.9432 132.838 13.7344 132.734 13.63C132.63 13.5256 132.421 13.3163 132.317 13.2118C132.213 13.1074 132.004 12.8986 131.9 12.7942C131.796 12.6897 131.587 12.4809 131.483 12.3765C131.379 12.2721 131.17 12.1678 131.066 12.0634C130.962 12.0634 130.857 11.8542 130.753 11.7498C130.545 11.6453 130.336 11.4365 130.127 11.3321C130.023 11.3321 129.919 11.1234 129.71 11.019C129.502 10.9145 129.293 10.7052 129.085 10.6008C128.876 10.4964 128.772 10.3921 128.563 10.2877C128.042 9.97437 127.625 9.66125 127.104 9.45237C127.104 9.45237 126.895 9.34772 126.791 9.24328C126.791 9.24328 126.687 9.24318 126.582 9.13874C126.582 9.13874 126.374 9.13864 126.374 9.0342C126.374 9.0342 126.165 9.0346 126.061 8.93016C126.061 8.93016 125.852 8.93006 125.852 8.82562H125.54C125.123 8.5123 124.706 8.30321 124.288 8.09433C124.08 8.09433 123.976 7.9902 123.767 7.88576C123.767 7.88576 123.663 7.88576 123.559 7.88576C123.454 7.88576 123.246 7.78111 123.037 7.67667C122.829 7.67667 122.62 7.57203 122.412 7.46759C122.203 7.46759 122.099 7.46799 121.89 7.36355C121.89 7.36355 121.786 7.36355 121.682 7.36355C121.682 7.36355 121.473 7.36355 121.369 7.36355C121.265 7.36355 121.16 7.36355 121.056 7.36355C121.056 7.36355 120.952 7.36355 120.848 7.36355C120.848 7.36355 120.639 7.36355 120.535 7.36355C120.326 7.36355 120.222 7.36355 120.014 7.36355C119.909 7.36355 119.701 7.36355 119.596 7.36355H119.388C119.284 7.36355 119.075 7.36355 118.867 7.36355C118.658 7.36355 118.45 7.36355 118.345 7.36355C117.72 7.36355 117.198 7.36345 116.573 7.25901C102.497 6.84125 90.7145 19.2694 89.6718 35.1444C89.6718 35.2488 89.6718 35.3537 89.6718 35.5625C89.6718 35.7714 89.6718 36.0844 89.6718 36.2933C89.6718 36.5022 89.6718 36.8157 89.6718 37.0246V37.4423C89.6718 53.4217 100.828 66.477 114.904 66.8948C115.53 66.8948 116.051 66.8948 116.677 66.8948C116.886 66.8948 117.094 66.8948 117.303 66.8948C117.303 66.8948 117.511 66.8948 117.615 66.8948C117.615 66.8948 117.824 66.8948 117.928 66.8948C117.928 66.8948 118.032 66.8948 118.137 66.8948C118.241 66.8948 118.45 66.8948 118.554 66.8948C118.762 66.8948 118.867 66.8948 119.075 66.8948C119.075 66.8948 119.075 66.8948 119.179 66.8948C119.284 66.8948 119.492 66.8948 119.596 66.8948C119.596 66.8948 119.596 66.8948 119.701 66.8948C119.805 66.8948 119.909 66.8948 120.014 66.8948C120.118 66.8948 120.222 66.8948 120.326 66.8948C120.535 66.8948 120.639 66.8947 120.848 66.7902C121.056 66.7902 121.265 66.7901 121.473 66.6857C121.682 66.6857 121.995 66.581 122.203 66.4766C122.307 66.4766 122.516 66.477 122.62 66.3726C122.829 66.3726 122.933 66.2679 123.142 66.1635C123.142 66.1635 123.35 66.1635 123.454 66.1635C123.559 66.1635 123.663 66.1634 123.767 66.0589C123.767 66.0589 123.871 66.0589 123.976 66.0589C124.08 66.0589 124.184 66.0588 124.393 65.9544C124.393 65.9544 124.393 65.9544 124.497 65.9544C124.601 65.9544 124.81 65.8503 124.914 65.7458C125.123 65.7458 125.227 65.6412 125.435 65.5367C125.853 65.3278 126.27 65.1189 126.687 64.91C126.895 64.91 126.999 64.7013 127.208 64.5969C127.417 64.4924 127.625 64.3882 127.834 64.2837C127.938 64.2837 128.042 64.0747 128.251 64.0747C128.355 64.0747 128.459 63.8656 128.668 63.8656C128.668 63.8656 128.876 63.7614 128.98 63.657C129.085 63.657 129.293 63.4478 129.398 63.3434C129.606 63.2389 129.71 63.1346 129.919 62.9257C130.127 62.8213 130.232 62.7169 130.44 62.508C130.545 62.4036 130.753 62.2994 130.857 62.1949C130.962 62.0905 131.17 61.9856 131.274 61.7768C131.379 61.7768 131.483 61.5681 131.587 61.4636C131.691 61.3592 131.9 61.2549 132.004 61.046C132.004 61.046 132.109 60.9413 132.213 60.8369C132.317 60.7325 132.421 60.6281 132.63 60.4192C132.734 60.3148 132.943 60.106 133.047 60.0016C133.151 59.8971 133.256 59.6884 133.464 59.5839C133.673 59.375 133.777 59.2706 133.985 59.0617C134.09 58.8528 134.298 58.7484 134.402 58.5395C134.507 58.3306 134.715 58.2262 134.819 58.0173C134.924 57.9129 135.028 57.704 135.237 57.4951C135.237 57.3907 135.445 57.2858 135.549 57.0769C135.758 56.868 135.862 56.6596 135.966 56.4507C136.071 56.2418 136.175 56.1374 136.279 55.9285C136.383 55.7196 136.488 55.6152 136.592 55.4063C136.696 55.1974 136.801 54.9885 136.905 54.8841C136.905 54.8841 137.009 54.6749 137.113 54.5704C137.113 54.5704 137.218 54.3618 137.322 54.2573C137.426 54.0484 137.53 53.8395 137.635 53.6306C137.635 53.4217 137.843 53.2127 137.948 53.0038C137.948 52.795 138.156 52.586 138.26 52.3771C138.26 52.1682 138.469 51.9597 138.573 51.7509C138.573 51.542 138.782 51.4375 138.782 51.2287C138.782 51.0198 138.99 50.7062 139.094 50.4974C139.094 50.2885 139.303 50.0795 139.303 49.8706C139.303 49.6617 139.407 49.4529 139.512 49.3484C139.512 49.244 139.511 49.1397 139.616 49.0353C139.616 48.8264 139.72 48.722 139.824 48.5131C139.824 48.3042 139.824 48.1998 139.929 47.9909C139.929 47.782 139.929 47.6776 140.033 47.4687C140.033 47.4687 140.033 47.2595 140.033 47.1551C140.033 46.9462 140.033 46.7373 140.137 46.6329C140.137 46.5284 140.137 46.3196 140.241 46.2152C140.45 45.4841 140.554 44.753 140.658 44.1264H124.184C123.142 48.9307 120.848 52.7952 118.137 54.7795L117.615 52.5862Z" fill="#8900EA"/>
<path d="M117.615 52.5862C116.781 53.2128 115.843 53.6308 115.009 53.8397C114.383 53.9441 113.862 54.0482 113.236 54.0482C107.397 53.8394 102.809 45.5889 103.122 35.5625C103.435 25.5362 108.44 17.5986 114.279 17.7031C115.843 17.7031 117.303 18.3294 118.658 19.4783C121.369 21.776 123.454 26.0582 124.184 31.1758H140.554C140.554 30.7581 140.45 30.3402 140.346 30.0269C140.346 29.6091 140.241 29.1917 140.137 28.7739C140.137 28.565 140.137 28.356 140.033 28.1472C140.033 27.9383 140.033 27.8338 139.929 27.6249C139.929 27.6249 139.929 27.6248 139.929 27.5204C139.929 27.416 139.929 27.2072 139.929 27.1027C139.929 27.1027 139.929 26.8936 139.929 26.7891C139.929 26.6847 139.929 26.4759 139.824 26.3715C139.824 26.267 139.824 26.0582 139.72 25.9538V25.7447C139.72 25.6403 139.72 25.4315 139.616 25.327C139.616 25.1182 139.511 24.9093 139.407 24.8048C139.199 24.1782 138.99 23.6563 138.677 23.0297C138.677 22.8208 138.469 22.6119 138.469 22.5075C138.469 22.2986 138.365 22.1941 138.26 21.9853C138.26 21.9853 138.26 21.7761 138.156 21.6716C138.156 21.6716 138.156 21.4629 138.052 21.3585C138.052 21.1496 137.947 21.0452 137.843 20.8363C137.843 20.7319 137.739 20.6275 137.635 20.4186C137.635 20.4186 137.635 20.4185 137.635 20.3141C137.635 20.2097 137.53 20.1049 137.426 20.0005C136.905 19.0605 136.383 18.1209 135.758 17.2854C135.758 17.181 135.549 16.9717 135.445 16.8672C135.445 16.8672 135.445 16.7631 135.341 16.6587C135.341 16.6587 135.237 16.4495 135.132 16.345C135.132 16.345 135.132 16.3455 135.132 16.241C135.028 16.1366 134.924 15.9273 134.819 15.8228C134.715 15.7184 134.611 15.5096 134.402 15.4052C134.298 15.3007 134.09 15.092 133.985 14.9875C133.881 14.8831 133.673 14.6742 133.568 14.4653C133.464 14.3609 133.255 14.1521 133.151 14.0477C133.047 13.9432 132.838 13.7344 132.734 13.63C132.63 13.5256 132.421 13.3163 132.317 13.2118C132.213 13.1074 132.004 12.8986 131.9 12.7942C131.796 12.6897 131.587 12.4809 131.483 12.3765C131.379 12.2721 131.17 12.1678 131.066 12.0634C130.962 12.0634 130.857 11.8542 130.753 11.7498C130.545 11.6453 130.336 11.4365 130.127 11.3321C130.023 11.3321 129.919 11.1234 129.71 11.019C129.502 10.9145 129.293 10.7052 129.085 10.6008C128.876 10.4964 128.772 10.3921 128.563 10.2877C128.042 9.97437 127.625 9.66125 127.104 9.45237C127.104 9.45237 126.895 9.34772 126.791 9.24328C126.791 9.24328 126.687 9.24318 126.582 9.13874C126.582 9.13874 126.374 9.13864 126.374 9.0342C126.374 9.0342 126.165 9.0346 126.061 8.93016C126.061 8.93016 125.852 8.93006 125.852 8.82562H125.54C125.123 8.5123 124.706 8.30321 124.288 8.09433C124.08 8.09433 123.976 7.9902 123.767 7.88576C123.767 7.88576 123.663 7.88576 123.559 7.88576C123.454 7.88576 123.246 7.78111 123.037 7.67667C122.829 7.67667 122.62 7.57203 122.412 7.46759C122.203 7.46759 122.099 7.46799 121.89 7.36355C121.89 7.36355 121.786 7.36355 121.682 7.36355C121.682 7.36355 121.473 7.36355 121.369 7.36355C121.265 7.36355 121.16 7.36355 121.056 7.36355C121.056 7.36355 120.952 7.36355 120.848 7.36355C120.848 7.36355 120.639 7.36355 120.535 7.36355C120.326 7.36355 120.222 7.36355 120.014 7.36355C119.909 7.36355 119.701 7.36355 119.596 7.36355H119.388C119.284 7.36355 119.075 7.36355 118.867 7.36355C118.658 7.36355 118.45 7.36355 118.345 7.36355C117.72 7.36355 117.198 7.36345 116.573 7.25901C102.497 6.84125 90.7145 19.2694 89.6718 35.1444C89.6718 35.2488 89.6718 35.3537 89.6718 35.5625C89.6718 35.7714 89.6718 36.0844 89.6718 36.2933C89.6718 36.5022 89.6718 36.8157 89.6718 37.0246V37.4423C89.6718 53.4217 100.828 66.477 114.904 66.8948C115.53 66.8948 116.051 66.8948 116.677 66.8948C116.886 66.8948 117.094 66.8948 117.303 66.8948C117.303 66.8948 117.511 66.8948 117.615 66.8948C117.615 66.8948 117.824 66.8948 117.928 66.8948C117.928 66.8948 118.032 66.8948 118.137 66.8948C118.241 66.8948 118.45 66.8948 118.554 66.8948C118.762 66.8948 118.867 66.8948 119.075 66.8948C119.075 66.8948 119.075 66.8948 119.179 66.8948C119.284 66.8948 119.492 66.8948 119.596 66.8948C119.596 66.8948 119.596 66.8948 119.701 66.8948C119.805 66.8948 119.909 66.8948 120.014 66.8948C120.118 66.8948 120.222 66.8948 120.326 66.8948C120.535 66.8948 120.639 66.8947 120.848 66.7902C121.056 66.7902 121.265 66.7901 121.473 66.6857C121.682 66.6857 121.995 66.581 122.203 66.4766C122.307 66.4766 122.516 66.477 122.62 66.3726C122.829 66.3726 122.933 66.2679 123.142 66.1635C123.142 66.1635 123.35 66.1635 123.454 66.1635C123.559 66.1635 123.663 66.1634 123.767 66.0589C123.767 66.0589 123.871 66.0589 123.976 66.0589C124.08 66.0589 124.184 66.0588 124.393 65.9544C124.393 65.9544 124.393 65.9544 124.497 65.9544C124.601 65.9544 124.81 65.8503 124.914 65.7458C125.123 65.7458 125.227 65.6412 125.435 65.5367C125.853 65.3278 126.27 65.1189 126.687 64.91C126.895 64.91 126.999 64.7013 127.208 64.5969C127.417 64.4924 127.625 64.3882 127.834 64.2837C127.938 64.2837 128.042 64.0747 128.251 64.0747C128.355 64.0747 128.459 63.8656 128.668 63.8656C128.668 63.8656 128.876 63.7614 128.98 63.657C129.085 63.657 129.293 63.4478 129.398 63.3434C129.606 63.2389 129.71 63.1346 129.919 62.9257C130.127 62.8213 130.232 62.7169 130.44 62.508C130.545 62.4036 130.753 62.2994 130.857 62.1949C130.962 62.0905 131.17 61.9856 131.274 61.7768C131.379 61.7768 131.483 61.5681 131.587 61.4636C131.691 61.3592 131.9 61.2549 132.004 61.046C132.004 61.046 132.109 60.9413 132.213 60.8369C132.317 60.7325 132.421 60.6281 132.63 60.4192C132.734 60.3148 132.943 60.106 133.047 60.0016C133.151 59.8971 133.256 59.6884 133.464 59.5839C133.673 59.375 133.777 59.2706 133.985 59.0617C134.09 58.8528 134.298 58.7484 134.402 58.5395C134.507 58.3306 134.715 58.2262 134.819 58.0173C134.924 57.9129 135.028 57.704 135.237 57.4951C135.237 57.3907 135.445 57.2858 135.549 57.0769C135.758 56.868 135.862 56.6596 135.966 56.4507C136.071 56.2418 136.175 56.1374 136.279 55.9285C136.383 55.7196 136.488 55.6152 136.592 55.4063C136.696 55.1974 136.801 54.9885 136.905 54.8841C136.905 54.8841 137.009 54.6749 137.113 54.5704C137.113 54.5704 137.218 54.3618 137.322 54.2573C137.426 54.0484 137.53 53.8395 137.635 53.6306C137.635 53.4217 137.843 53.2127 137.948 53.0038C137.948 52.795 138.156 52.586 138.26 52.3771C138.26 52.1682 138.469 51.9597 138.573 51.7509C138.573 51.542 138.782 51.4375 138.782 51.2287C138.782 51.0198 138.99 50.7062 139.094 50.4974C139.094 50.2885 139.303 50.0795 139.303 49.8706C139.303 49.6617 139.407 49.4529 139.512 49.3484C139.512 49.244 139.511 49.1397 139.616 49.0353C139.616 48.8264 139.72 48.722 139.824 48.5131C139.824 48.3042 139.824 48.1998 139.929 47.9909C139.929 47.782 139.929 47.6776 140.033 47.4687C140.033 47.4687 140.033 47.2595 140.033 47.1551C140.033 46.9462 140.033 46.7373 140.137 46.6329C140.137 46.5284 140.137 46.3196 140.241 46.2152C140.45 45.4841 140.554 44.753 140.658 44.1264H124.184C123.142 48.9307 120.848 52.7952 118.137 54.7795L117.615 52.5862Z" stroke="#230B00" stroke-width="3.7" stroke-miterlimit="5.5"/>
<path d="M117.615 52.5863C116.781 53.2129 115.843 53.6309 115.009 53.8398C114.383 53.9442 113.862 54.0483 113.236 54.0483C107.397 53.8394 102.809 45.5889 103.122 35.5626C103.435 25.5363 108.44 17.5987 114.279 17.7032C115.843 17.7032 117.303 18.3295 118.658 19.4784C114.904 22.1938 112.089 28.4605 111.881 35.8757C111.672 43.291 114.07 49.6619 117.615 52.5863Z" fill="#8900EA"/>
<path d="M117.615 52.5863C116.781 53.2129 115.843 53.6309 115.009 53.8398C114.383 53.9442 113.862 54.0483 113.236 54.0483C107.397 53.8394 102.809 45.5889 103.122 35.5626C103.435 25.5363 108.44 17.5987 114.279 17.7032C115.843 17.7032 117.303 18.3295 118.658 19.4784C114.904 22.1938 112.089 28.4605 111.881 35.8757C111.672 43.291 114.07 49.6619 117.615 52.5863Z" fill="#F79577"/>
<path d="M117.615 52.5863C116.781 53.2129 115.843 53.6309 115.009 53.8398C114.383 53.9442 113.862 54.0483 113.236 54.0483C107.397 53.8394 102.809 45.5889 103.122 35.5626C103.435 25.5363 108.44 17.5987 114.279 17.7032C115.843 17.7032 117.303 18.3295 118.658 19.4784C114.904 22.1938 112.089 28.4605 111.881 35.8757C111.672 43.291 114.07 49.6619 117.615 52.5863Z" stroke="#230B00" stroke-width="3.7" stroke-miterlimit="5.5"/>
<path d="M140.137 41.9331H147.749C144.933 55.9282 132.317 66.3722 117.511 65.9545C116.781 65.9545 116.156 65.9549 115.426 65.8504C115.634 65.8504 115.843 65.8504 116.051 65.8504C116.051 65.8504 116.26 65.8504 116.364 65.8504C116.364 65.8504 116.573 65.8504 116.677 65.8504C116.677 65.8504 116.781 65.8504 116.886 65.8504C116.99 65.8504 117.198 65.8504 117.303 65.8504C117.511 65.8504 117.615 65.8504 117.824 65.8504C117.824 65.8504 117.824 65.8504 117.928 65.8504C118.032 65.8504 118.241 65.8504 118.345 65.8504C118.345 65.8504 118.345 65.8504 118.45 65.8504C118.554 65.8504 118.658 65.8504 118.762 65.8504C118.867 65.8504 118.971 65.8504 119.075 65.8504C119.284 65.8504 119.388 65.8503 119.596 65.7459C119.805 65.7459 120.014 65.7458 120.222 65.6414C120.431 65.6414 120.743 65.5367 120.952 65.4323C121.056 65.4323 121.265 65.4327 121.369 65.3282C121.578 65.3282 121.682 65.2236 121.89 65.1191C121.89 65.1191 122.099 65.1191 122.203 65.1191C122.307 65.1191 122.412 65.119 122.516 65.0146C122.516 65.0146 122.62 65.0146 122.724 65.0146C122.829 65.0146 122.933 65.0145 123.142 64.9101C123.142 64.9101 123.142 64.9101 123.246 64.9101C123.35 64.9101 123.559 64.8059 123.663 64.7015C123.871 64.7015 123.976 64.5968 124.184 64.4924C124.601 64.2835 125.018 64.0745 125.435 63.8657C125.644 63.8657 125.748 63.657 125.957 63.5525C126.165 63.4481 126.374 63.3439 126.582 63.2394C126.687 63.2394 126.791 63.0303 126.999 63.0303C127.104 63.0303 127.208 62.8212 127.417 62.8212C127.417 62.8212 127.625 62.7171 127.729 62.6127C127.834 62.6127 128.042 62.4035 128.146 62.299C128.355 62.1946 128.459 62.0903 128.668 61.8814C128.876 61.7769 128.981 61.6726 129.189 61.4637C129.293 61.3593 129.502 61.255 129.606 61.1506C129.71 61.0462 129.919 60.9413 130.023 60.7324C130.127 60.7324 130.232 60.5238 130.336 60.4193C130.44 60.3149 130.649 60.2105 130.753 60.0017C130.753 60.0017 130.857 59.897 130.962 59.7926C131.066 59.6881 131.17 59.5838 131.379 59.3749C131.483 59.2705 131.691 59.0617 131.796 58.9572C131.9 58.8528 132.004 58.644 132.213 58.5396C132.421 58.3307 132.526 58.2263 132.734 58.0174C132.838 57.8085 133.047 57.7041 133.151 57.4952C133.255 57.2863 133.464 57.1819 133.568 56.973C133.673 56.8685 133.777 56.6597 133.985 56.4508C133.985 56.3463 134.194 56.2415 134.298 56.0326C134.507 55.8237 134.611 55.6152 134.715 55.4064C134.819 55.1975 134.924 55.093 135.028 54.8842C135.132 54.6753 135.237 54.5708 135.341 54.362C135.445 54.1531 135.549 53.9442 135.654 53.8398C135.654 53.8398 135.758 53.6306 135.862 53.5261C135.862 53.5261 135.966 53.3174 136.071 53.213C136.175 53.0041 136.279 52.7951 136.384 52.5863C136.384 52.3774 136.592 52.1684 136.696 51.9595C136.696 51.7506 136.905 51.5417 137.009 51.3328C137.009 51.1239 137.218 50.9154 137.322 50.7065C137.322 50.4977 137.53 50.3932 137.53 50.1843C137.53 49.9754 137.739 49.6619 137.843 49.453C137.843 49.2442 138.052 49.0352 138.052 48.8263C138.052 48.6174 138.156 48.4085 138.26 48.3041C138.26 48.1997 138.26 48.0954 138.365 47.991C138.365 47.7821 138.469 47.6777 138.573 47.4688C138.573 47.2599 138.573 47.1554 138.677 46.9466C138.677 46.7377 138.677 46.6332 138.782 46.4244C138.782 46.4244 138.782 46.2152 138.782 46.1107C138.782 45.9019 138.782 45.693 138.886 45.5885C138.886 45.4841 138.886 45.2753 138.99 45.1709C139.199 44.4398 139.303 43.7087 139.407 43.0821L140.137 41.9331Z" fill="#8900EA"/>
<path d="M140.137 41.9331H147.749C144.933 55.9282 132.317 66.3722 117.511 65.9545C116.781 65.9545 116.156 65.9549 115.426 65.8504C115.634 65.8504 115.843 65.8504 116.051 65.8504C116.051 65.8504 116.26 65.8504 116.364 65.8504C116.364 65.8504 116.573 65.8504 116.677 65.8504C116.677 65.8504 116.781 65.8504 116.886 65.8504C116.99 65.8504 117.198 65.8504 117.303 65.8504C117.511 65.8504 117.615 65.8504 117.824 65.8504C117.824 65.8504 117.824 65.8504 117.928 65.8504C118.032 65.8504 118.241 65.8504 118.345 65.8504C118.345 65.8504 118.345 65.8504 118.45 65.8504C118.554 65.8504 118.658 65.8504 118.762 65.8504C118.867 65.8504 118.971 65.8504 119.075 65.8504C119.284 65.8504 119.388 65.8503 119.596 65.7459C119.805 65.7459 120.014 65.7458 120.222 65.6414C120.431 65.6414 120.743 65.5367 120.952 65.4323C121.056 65.4323 121.265 65.4327 121.369 65.3282C121.578 65.3282 121.682 65.2236 121.89 65.1191C121.89 65.1191 122.099 65.1191 122.203 65.1191C122.307 65.1191 122.412 65.119 122.516 65.0146C122.516 65.0146 122.62 65.0146 122.724 65.0146C122.829 65.0146 122.933 65.0145 123.142 64.9101C123.142 64.9101 123.142 64.9101 123.246 64.9101C123.35 64.9101 123.559 64.8059 123.663 64.7015C123.871 64.7015 123.976 64.5968 124.184 64.4924C124.601 64.2835 125.018 64.0745 125.435 63.8657C125.644 63.8657 125.748 63.657 125.957 63.5525C126.165 63.4481 126.374 63.3439 126.582 63.2394C126.687 63.2394 126.791 63.0303 126.999 63.0303C127.104 63.0303 127.208 62.8212 127.417 62.8212C127.417 62.8212 127.625 62.7171 127.729 62.6127C127.834 62.6127 128.042 62.4035 128.146 62.299C128.355 62.1946 128.459 62.0903 128.668 61.8814C128.876 61.7769 128.981 61.6726 129.189 61.4637C129.293 61.3593 129.502 61.255 129.606 61.1506C129.71 61.0462 129.919 60.9413 130.023 60.7324C130.127 60.7324 130.232 60.5238 130.336 60.4193C130.44 60.3149 130.649 60.2105 130.753 60.0017C130.753 60.0017 130.857 59.897 130.962 59.7926C131.066 59.6881 131.17 59.5838 131.379 59.3749C131.483 59.2705 131.691 59.0617 131.796 58.9572C131.9 58.8528 132.004 58.644 132.213 58.5396C132.421 58.3307 132.526 58.2263 132.734 58.0174C132.838 57.8085 133.047 57.7041 133.151 57.4952C133.255 57.2863 133.464 57.1819 133.568 56.973C133.673 56.8685 133.777 56.6597 133.985 56.4508C133.985 56.3463 134.194 56.2415 134.298 56.0326C134.507 55.8237 134.611 55.6152 134.715 55.4064C134.819 55.1975 134.924 55.093 135.028 54.8842C135.132 54.6753 135.237 54.5708 135.341 54.362C135.445 54.1531 135.549 53.9442 135.654 53.8398C135.654 53.8398 135.758 53.6306 135.862 53.5261C135.862 53.5261 135.966 53.3174 136.071 53.213C136.175 53.0041 136.279 52.7951 136.384 52.5863C136.384 52.3774 136.592 52.1684 136.696 51.9595C136.696 51.7506 136.905 51.5417 137.009 51.3328C137.009 51.1239 137.218 50.9154 137.322 50.7065C137.322 50.4977 137.53 50.3932 137.53 50.1843C137.53 49.9754 137.739 49.6619 137.843 49.453C137.843 49.2442 138.052 49.0352 138.052 48.8263C138.052 48.6174 138.156 48.4085 138.26 48.3041C138.26 48.1997 138.26 48.0954 138.365 47.991C138.365 47.7821 138.469 47.6777 138.573 47.4688C138.573 47.2599 138.573 47.1554 138.677 46.9466C138.677 46.7377 138.677 46.6332 138.782 46.4244C138.782 46.4244 138.782 46.2152 138.782 46.1107C138.782 45.9019 138.782 45.693 138.886 45.5885C138.886 45.4841 138.886 45.2753 138.99 45.1709C139.199 44.4398 139.303 43.7087 139.407 43.0821L140.137 41.9331Z" fill="#F79577"/>
<path d="M140.137 41.9331H147.749C144.933 55.9282 132.317 66.3722 117.511 65.9545C116.781 65.9545 116.156 65.9549 115.426 65.8504C115.634 65.8504 115.843 65.8504 116.051 65.8504C116.051 65.8504 116.26 65.8504 116.364 65.8504C116.364 65.8504 116.573 65.8504 116.677 65.8504C116.677 65.8504 116.781 65.8504 116.886 65.8504C116.99 65.8504 117.198 65.8504 117.303 65.8504C117.511 65.8504 117.615 65.8504 117.824 65.8504C117.824 65.8504 117.824 65.8504 117.928 65.8504C118.032 65.8504 118.241 65.8504 118.345 65.8504C118.345 65.8504 118.345 65.8504 118.45 65.8504C118.554 65.8504 118.658 65.8504 118.762 65.8504C118.867 65.8504 118.971 65.8504 119.075 65.8504C119.284 65.8504 119.388 65.8503 119.596 65.7459C119.805 65.7459 120.014 65.7458 120.222 65.6414C120.431 65.6414 120.743 65.5367 120.952 65.4323C121.056 65.4323 121.265 65.4327 121.369 65.3282C121.578 65.3282 121.682 65.2236 121.89 65.1191C121.89 65.1191 122.099 65.1191 122.203 65.1191C122.307 65.1191 122.412 65.119 122.516 65.0146C122.516 65.0146 122.62 65.0146 122.724 65.0146C122.829 65.0146 122.933 65.0145 123.142 64.9101C123.142 64.9101 123.142 64.9101 123.246 64.9101C123.35 64.9101 123.559 64.8059 123.663 64.7015C123.871 64.7015 123.976 64.5968 124.184 64.4924C124.601 64.2835 125.018 64.0745 125.435 63.8657C125.644 63.8657 125.748 63.657 125.957 63.5525C126.165 63.4481 126.374 63.3439 126.582 63.2394C126.687 63.2394 126.791 63.0303 126.999 63.0303C127.104 63.0303 127.208 62.8212 127.417 62.8212C127.417 62.8212 127.625 62.7171 127.729 62.6127C127.834 62.6127 128.042 62.4035 128.146 62.299C128.355 62.1946 128.459 62.0903 128.668 61.8814C128.876 61.7769 128.981 61.6726 129.189 61.4637C129.293 61.3593 129.502 61.255 129.606 61.1506C129.71 61.0462 129.919 60.9413 130.023 60.7324C130.127 60.7324 130.232 60.5238 130.336 60.4193C130.44 60.3149 130.649 60.2105 130.753 60.0017C130.753 60.0017 130.857 59.897 130.962 59.7926C131.066 59.6881 131.17 59.5838 131.379 59.3749C131.483 59.2705 131.691 59.0617 131.796 58.9572C131.9 58.8528 132.004 58.644 132.213 58.5396C132.421 58.3307 132.526 58.2263 132.734 58.0174C132.838 57.8085 133.047 57.7041 133.151 57.4952C133.255 57.2863 133.464 57.1819 133.568 56.973C133.673 56.8685 133.777 56.6597 133.985 56.4508C133.985 56.3463 134.194 56.2415 134.298 56.0326C134.507 55.8237 134.611 55.6152 134.715 55.4064C134.819 55.1975 134.924 55.093 135.028 54.8842C135.132 54.6753 135.237 54.5708 135.341 54.362C135.445 54.1531 135.549 53.9442 135.654 53.8398C135.654 53.8398 135.758 53.6306 135.862 53.5261C135.862 53.5261 135.966 53.3174 136.071 53.213C136.175 53.0041 136.279 52.7951 136.384 52.5863C136.384 52.3774 136.592 52.1684 136.696 51.9595C136.696 51.7506 136.905 51.5417 137.009 51.3328C137.009 51.1239 137.218 50.9154 137.322 50.7065C137.322 50.4977 137.53 50.3932 137.53 50.1843C137.53 49.9754 137.739 49.6619 137.843 49.453C137.843 49.2442 138.052 49.0352 138.052 48.8263C138.052 48.6174 138.156 48.4085 138.26 48.3041C138.26 48.1997 138.26 48.0954 138.365 47.991C138.365 47.7821 138.469 47.6777 138.573 47.4688C138.573 47.2599 138.573 47.1554 138.677 46.9466C138.677 46.7377 138.677 46.6332 138.782 46.4244C138.782 46.4244 138.782 46.2152 138.782 46.1107C138.782 45.9019 138.782 45.693 138.886 45.5885C138.886 45.4841 138.886 45.2753 138.99 45.1709C139.199 44.4398 139.303 43.7087 139.407 43.0821L140.137 41.9331Z" stroke="#230B00" stroke-width="3.7" stroke-miterlimit="5.5"/>
<path d="M117.824 6.2146C117.615 6.2146 117.407 6.2146 117.303 6.2146C118.032 6.2146 118.658 6.2146 119.388 6.2146C133.985 6.63236 145.767 17.3898 148.061 31.2804H140.45C140.45 30.8626 140.346 30.4447 140.241 30.1314C140.241 29.7137 140.137 29.2957 140.033 28.8779C140.033 28.669 140.033 28.4606 139.928 28.2517C139.928 28.0428 139.929 27.9384 139.824 27.7295C139.824 27.7295 139.824 27.7294 139.824 27.6249C139.824 27.5205 139.824 27.3117 139.824 27.2073C139.824 27.2073 139.824 26.9981 139.824 26.8937C139.824 26.7892 139.824 26.5804 139.72 26.476C139.72 26.3716 139.72 26.1628 139.616 26.0583V25.8492C139.616 25.7448 139.616 25.536 139.511 25.4316C139.511 25.2227 139.407 25.0138 139.303 24.9094C139.094 24.2827 138.886 23.7603 138.573 23.1337C138.573 22.9248 138.364 22.7159 138.364 22.6115C138.364 22.4026 138.26 22.2982 138.156 22.0893C138.156 22.0893 138.156 21.8806 138.052 21.7762C138.052 21.7762 138.052 21.5675 137.947 21.463C137.947 21.2542 137.843 21.1497 137.739 20.9408C137.739 20.8364 137.635 20.7316 137.53 20.5227C137.53 20.5227 137.53 20.5231 137.53 20.4186C137.53 20.3142 137.426 20.2094 137.322 20.105C136.8 19.165 136.279 18.225 135.654 17.3894C135.654 17.285 135.445 17.0762 135.341 16.9718C135.341 16.9718 135.341 16.8677 135.236 16.7632C135.236 16.7632 135.132 16.554 135.028 16.4496C135.028 16.4496 135.028 16.4495 135.028 16.345C134.924 16.2406 134.819 16.0318 134.715 15.9274C134.611 15.8229 134.507 15.6142 134.298 15.5097C134.194 15.4053 133.985 15.1965 133.881 15.0921C133.777 14.9876 133.568 14.7787 133.464 14.5699C133.36 14.4654 133.151 14.2566 133.047 14.1522C132.943 14.0478 132.734 13.8385 132.63 13.734C132.526 13.6296 132.317 13.4208 132.213 13.3164C132.108 13.2119 131.9 13.0031 131.796 12.8987C131.691 12.7943 131.483 12.5855 131.379 12.481C131.274 12.3766 131.066 12.2719 130.962 12.1674C130.857 12.1674 130.753 11.9587 130.649 11.8543C130.44 11.7499 130.232 11.5411 130.023 11.4366C129.919 11.4366 129.815 11.2274 129.606 11.123C129.398 11.0186 129.189 10.8098 128.98 10.7053C128.772 10.6009 128.668 10.4967 128.459 10.3922C127.938 10.0789 127.521 9.76528 126.999 9.5564C126.999 9.5564 126.791 9.45226 126.687 9.34782C126.687 9.34782 126.582 9.34772 126.478 9.24328C126.478 9.24328 126.27 9.24318 126.27 9.13874C126.27 9.13874 126.061 9.13863 125.957 9.03419C125.957 9.03419 125.748 9.0346 125.748 8.93016H125.435C125.018 8.61684 124.601 8.40775 124.184 8.19887C123.976 8.19887 123.871 8.09423 123.663 7.98979C123.663 7.98979 123.559 7.98979 123.454 7.98979C123.35 7.98979 123.141 7.88565 122.933 7.78121C122.724 7.78121 122.516 7.67657 122.307 7.57212C122.099 7.57212 121.995 7.57202 121.786 7.46758C121.786 7.46758 121.682 7.46758 121.577 7.46758C121.577 7.46758 121.369 7.46758 121.265 7.46758C121.16 7.46758 121.056 7.46758 120.952 7.46758C120.952 7.46758 120.848 7.46758 120.743 7.46758C120.743 7.46758 120.535 7.46758 120.431 7.46758C120.222 7.46758 120.118 7.46758 119.909 7.46758C119.805 7.46758 119.596 7.46758 119.492 7.46758H119.284C119.179 7.46758 118.971 7.46758 118.762 7.46758L117.824 6.2146Z" fill="#8900EA"/>
<path d="M117.824 6.2146C117.615 6.2146 117.407 6.2146 117.303 6.2146C118.032 6.2146 118.658 6.2146 119.388 6.2146C133.985 6.63236 145.767 17.3898 148.061 31.2804H140.45C140.45 30.8626 140.346 30.4447 140.241 30.1314C140.241 29.7137 140.137 29.2957 140.033 28.8779C140.033 28.669 140.033 28.4606 139.928 28.2517C139.928 28.0428 139.929 27.9384 139.824 27.7295C139.824 27.7295 139.824 27.7294 139.824 27.6249C139.824 27.5205 139.824 27.3117 139.824 27.2073C139.824 27.2073 139.824 26.9981 139.824 26.8937C139.824 26.7892 139.824 26.5804 139.72 26.476C139.72 26.3716 139.72 26.1628 139.616 26.0583V25.8492C139.616 25.7448 139.616 25.536 139.511 25.4316C139.511 25.2227 139.407 25.0138 139.303 24.9094C139.094 24.2827 138.886 23.7603 138.573 23.1337C138.573 22.9248 138.364 22.7159 138.364 22.6115C138.364 22.4026 138.26 22.2982 138.156 22.0893C138.156 22.0893 138.156 21.8806 138.052 21.7762C138.052 21.7762 138.052 21.5675 137.947 21.463C137.947 21.2542 137.843 21.1497 137.739 20.9408C137.739 20.8364 137.635 20.7316 137.53 20.5227C137.53 20.5227 137.53 20.5231 137.53 20.4186C137.53 20.3142 137.426 20.2094 137.322 20.105C136.8 19.165 136.279 18.225 135.654 17.3894C135.654 17.285 135.445 17.0762 135.341 16.9718C135.341 16.9718 135.341 16.8677 135.236 16.7632C135.236 16.7632 135.132 16.554 135.028 16.4496C135.028 16.4496 135.028 16.4495 135.028 16.345C134.924 16.2406 134.819 16.0318 134.715 15.9274C134.611 15.8229 134.507 15.6142 134.298 15.5097C134.194 15.4053 133.985 15.1965 133.881 15.0921C133.777 14.9876 133.568 14.7787 133.464 14.5699C133.36 14.4654 133.151 14.2566 133.047 14.1522C132.943 14.0478 132.734 13.8385 132.63 13.734C132.526 13.6296 132.317 13.4208 132.213 13.3164C132.108 13.2119 131.9 13.0031 131.796 12.8987C131.691 12.7943 131.483 12.5855 131.379 12.481C131.274 12.3766 131.066 12.2719 130.962 12.1674C130.857 12.1674 130.753 11.9587 130.649 11.8543C130.44 11.7499 130.232 11.5411 130.023 11.4366C129.919 11.4366 129.815 11.2274 129.606 11.123C129.398 11.0186 129.189 10.8098 128.98 10.7053C128.772 10.6009 128.668 10.4967 128.459 10.3922C127.938 10.0789 127.521 9.76528 126.999 9.5564C126.999 9.5564 126.791 9.45226 126.687 9.34782C126.687 9.34782 126.582 9.34772 126.478 9.24328C126.478 9.24328 126.27 9.24318 126.27 9.13874C126.27 9.13874 126.061 9.13863 125.957 9.03419C125.957 9.03419 125.748 9.0346 125.748 8.93016H125.435C125.018 8.61684 124.601 8.40775 124.184 8.19887C123.976 8.19887 123.871 8.09423 123.663 7.98979C123.663 7.98979 123.559 7.98979 123.454 7.98979C123.35 7.98979 123.141 7.88565 122.933 7.78121C122.724 7.78121 122.516 7.67657 122.307 7.57212C122.099 7.57212 121.995 7.57202 121.786 7.46758C121.786 7.46758 121.682 7.46758 121.577 7.46758C121.577 7.46758 121.369 7.46758 121.265 7.46758C121.16 7.46758 121.056 7.46758 120.952 7.46758C120.952 7.46758 120.848 7.46758 120.743 7.46758C120.743 7.46758 120.535 7.46758 120.431 7.46758C120.222 7.46758 120.118 7.46758 119.909 7.46758C119.805 7.46758 119.596 7.46758 119.492 7.46758H119.284C119.179 7.46758 118.971 7.46758 118.762 7.46758L117.824 6.2146Z" fill="#F79577"/>
<path d="M117.824 6.2146C117.615 6.2146 117.407 6.2146 117.303 6.2146C118.032 6.2146 118.658 6.2146 119.388 6.2146C133.985 6.63236 145.767 17.3898 148.061 31.2804H140.45C140.45 30.8626 140.346 30.4447 140.241 30.1314C140.241 29.7137 140.137 29.2957 140.033 28.8779C140.033 28.669 140.033 28.4606 139.928 28.2517C139.928 28.0428 139.929 27.9384 139.824 27.7295C139.824 27.7295 139.824 27.7294 139.824 27.6249C139.824 27.5205 139.824 27.3117 139.824 27.2073C139.824 27.2073 139.824 26.9981 139.824 26.8937C139.824 26.7892 139.824 26.5804 139.72 26.476C139.72 26.3716 139.72 26.1628 139.616 26.0583V25.8492C139.616 25.7448 139.616 25.536 139.511 25.4316C139.511 25.2227 139.407 25.0138 139.303 24.9094C139.094 24.2827 138.886 23.7603 138.573 23.1337C138.573 22.9248 138.364 22.7159 138.364 22.6115C138.364 22.4026 138.26 22.2982 138.156 22.0893C138.156 22.0893 138.156 21.8806 138.052 21.7762C138.052 21.7762 138.052 21.5675 137.947 21.463C137.947 21.2542 137.843 21.1497 137.739 20.9408C137.739 20.8364 137.635 20.7316 137.53 20.5227C137.53 20.5227 137.53 20.5231 137.53 20.4186C137.53 20.3142 137.426 20.2094 137.322 20.105C136.8 19.165 136.279 18.225 135.654 17.3894C135.654 17.285 135.445 17.0762 135.341 16.9718C135.341 16.9718 135.341 16.8677 135.236 16.7632C135.236 16.7632 135.132 16.554 135.028 16.4496C135.028 16.4496 135.028 16.4495 135.028 16.345C134.924 16.2406 134.819 16.0318 134.715 15.9274C134.611 15.8229 134.507 15.6142 134.298 15.5097C134.194 15.4053 133.985 15.1965 133.881 15.0921C133.777 14.9876 133.568 14.7787 133.464 14.5699C133.36 14.4654 133.151 14.2566 133.047 14.1522C132.943 14.0478 132.734 13.8385 132.63 13.734C132.526 13.6296 132.317 13.4208 132.213 13.3164C132.108 13.2119 131.9 13.0031 131.796 12.8987C131.691 12.7943 131.483 12.5855 131.379 12.481C131.274 12.3766 131.066 12.2719 130.962 12.1674C130.857 12.1674 130.753 11.9587 130.649 11.8543C130.44 11.7499 130.232 11.5411 130.023 11.4366C129.919 11.4366 129.815 11.2274 129.606 11.123C129.398 11.0186 129.189 10.8098 128.98 10.7053C128.772 10.6009 128.668 10.4967 128.459 10.3922C127.938 10.0789 127.521 9.76528 126.999 9.5564C126.999 9.5564 126.791 9.45226 126.687 9.34782C126.687 9.34782 126.582 9.34772 126.478 9.24328C126.478 9.24328 126.27 9.24318 126.27 9.13874C126.27 9.13874 126.061 9.13863 125.957 9.03419C125.957 9.03419 125.748 9.0346 125.748 8.93016H125.435C125.018 8.61684 124.601 8.40775 124.184 8.19887C123.976 8.19887 123.871 8.09423 123.663 7.98979C123.663 7.98979 123.559 7.98979 123.454 7.98979C123.35 7.98979 123.141 7.88565 122.933 7.78121C122.724 7.78121 122.516 7.67657 122.307 7.57212C122.099 7.57212 121.995 7.57202 121.786 7.46758C121.786 7.46758 121.682 7.46758 121.577 7.46758C121.577 7.46758 121.369 7.46758 121.265 7.46758C121.16 7.46758 121.056 7.46758 120.952 7.46758C120.952 7.46758 120.848 7.46758 120.743 7.46758C120.743 7.46758 120.535 7.46758 120.431 7.46758C120.222 7.46758 120.118 7.46758 119.909 7.46758C119.805 7.46758 119.596 7.46758 119.492 7.46758H119.284C119.179 7.46758 118.971 7.46758 118.762 7.46758L117.824 6.2146Z" stroke="#230B00" stroke-width="3.7" stroke-miterlimit="5.5"/>
<path d="M86.2305 159.22C93.0832 159.22 98.6383 150.617 98.6383 140.003C98.6383 129.39 93.0832 120.786 86.2305 120.786C79.3779 120.786 73.8228 129.39 73.8228 140.003C73.8228 150.617 79.3779 159.22 86.2305 159.22Z" fill="#00FFF8"/>
<path d="M158.592 159.638C165.445 159.638 171 151.034 171 140.421C171 129.808 165.445 121.204 158.592 121.204C151.739 121.204 146.184 129.808 146.184 140.421C146.184 151.034 151.739 159.638 158.592 159.638Z" fill="#00FFF8"/>
<path d="M176.213 99.2717L169.853 96.8693C165.995 95.5115 161.824 94.8849 157.862 95.3027C155.985 95.5115 154.004 95.9294 152.023 96.4516C148.999 97.2871 145.871 95.5117 145.037 92.3785C143.994 88.6187 147.227 84.7544 150.98 85.1722C155.985 85.3811 161.407 86.4253 165.891 88.6186C169.853 90.394 174.232 94.1537 177.569 96.7647C178.82 97.8091 177.568 99.7939 176.109 99.2717H176.213Z" fill="#00FFF8"/>
<path d="M68.8181 95.72L74.1357 91.4383C80.0789 86.7385 88.0032 84.2318 95.6147 84.0229C103.226 84.0229 103.748 94.7802 96.136 95.4069C95.5104 95.4069 94.8849 95.4067 94.3635 95.1978C92.3824 94.6756 90.4013 94.2582 88.5245 94.0494C84.5624 93.6316 80.3917 94.2582 76.5338 95.616L70.1735 98.0179C68.6095 98.6445 67.4625 96.5558 68.7137 95.5114L68.8181 95.72Z" fill="#00FFF8"/>
</svg>
