<svg width="285" height="599" viewBox="0 0 285 599" fill="none" xmlns="http://www.w3.org/2000/svg">
<path d="M202.634 557.495C202.203 552.782 199.942 544.819 198.865 541.427L164.406 535C161.714 538.214 157.407 546.85 157.407 555.889C157.407 562.851 153.099 592.25 159.56 593.917C174.097 597.666 212.863 595.523 214.479 593.917C216.094 592.31 218.248 579.991 216.094 569.814C214.371 561.673 206.403 558.21 202.634 557.495Z" fill="#2D2518"/>
<path d="M189.711 559.102C182.712 557.674 168.283 558.352 166.56 572.492M198.865 541.427C199.942 544.819 202.203 552.782 202.634 557.495C206.403 558.21 214.371 561.673 216.094 569.814C218.248 579.991 216.094 592.31 214.479 593.917C212.863 595.523 174.097 597.666 159.56 593.917C153.099 592.25 157.407 562.851 157.407 555.889C157.407 546.85 161.714 538.214 164.406 535L198.865 541.427Z" stroke="#120C02"/>
<path d="M87.3666 559.495C87.7973 554.782 90.0587 546.819 91.1355 543.427L125.594 537C128.286 540.214 132.594 548.85 132.594 557.889C132.594 564.851 136.901 594.25 130.44 595.917C115.903 599.666 77.1368 597.523 75.5215 595.917C73.9063 594.31 71.7526 581.991 73.9063 571.814C75.6292 563.673 83.5977 560.21 87.3666 559.495Z" fill="#2D2518"/>
<path d="M100.289 561.102C107.288 559.674 121.718 560.352 123.441 574.492M91.1355 543.427C90.0587 546.819 87.7973 554.782 87.3666 559.495C83.5977 560.21 75.6292 563.673 73.9063 571.814C71.7526 581.991 73.9063 594.31 75.5215 595.917C77.1368 597.523 115.903 599.666 130.44 595.917C136.901 594.25 132.594 564.851 132.594 557.889C132.594 548.85 128.286 540.214 125.594 537L91.1355 543.427Z" stroke="#120C02"/>
<path d="M143.451 427.675L152.541 487.565C155.215 506.815 147.729 547.454 152.541 556.01C157.354 564.566 212.966 558.684 212.966 552.802C212.966 546.92 211.361 504.683 212.966 490.245C214.249 478.695 214.22 477.946 214.378 472.599C214.912 454.418 209.222 361.903 209.222 357.091C209.222 355.624 196.958 355.25 179.812 355.635C168.713 355.885 155.568 356.453 142.381 357.248C129.293 358.038 123.649 349.962 112.436 351.112C95.1303 352.889 82.3915 354.989 81.4219 357.09C79.1728 361.963 74.1673 390.116 75.8519 413.237C76.5704 423.099 77.1441 433.699 77.1441 444.252V494.523C79.8177 545.857 75.5399 556.01 81.4219 556.01C87.3039 556.01 123.666 562.427 132.221 556.01C140.777 549.593 135.43 496.12 139.707 484.891C143.13 475.908 143.629 443.004 143.451 427.675Z" fill="#423E3B"/>
<path d="M142.381 357.248C142.738 367.356 143.237 388.747 142.381 393.452C141.526 398.158 139.886 400.047 139.173 400.404M142.381 357.248C155.568 356.453 168.713 355.885 179.812 355.635C196.958 355.25 209.222 355.624 209.222 357.091C209.222 361.903 214.912 454.418 214.378 472.599C214.22 477.946 214.249 478.695 212.966 490.245C211.361 504.683 212.966 546.92 212.966 552.802C212.966 558.684 157.354 564.566 152.541 556.01C147.729 547.454 155.215 506.815 152.541 487.565L143.451 427.675C143.629 443.004 143.13 475.908 139.707 484.891C135.43 496.12 140.777 549.593 132.221 556.01C123.666 562.427 87.3039 556.01 81.4219 556.01C75.5399 556.01 79.8177 545.857 77.1441 494.523C77.1441 491.849 77.1441 479.544 77.1441 444.252C77.1441 433.699 76.5704 423.099 75.8519 413.237C74.1673 390.116 79.1728 361.963 81.4219 357.09C82.3915 354.989 95.1303 352.889 112.436 351.112C123.649 349.962 129.293 358.038 142.381 357.248Z" stroke="black" stroke-width="2"/>
<path d="M78.1854 555.267C79.0409 556.978 86.741 557.762 90.4841 557.94C82.4632 541.898 86.2063 422.119 86.741 394.313C87.1688 372.068 92.623 356.882 95.2967 352.069C83.3187 353.78 80.6808 355.991 80.859 356.882C75.5117 366.507 74.4423 405.542 75.5117 419.98C76.5812 434.418 77.1159 553.128 78.1854 555.267Z" fill="#D9D9D9"/>
<path d="M150.909 482.543C148.342 463.293 145.561 438.517 144.492 428.536C152.513 459.55 163.742 492.169 160.534 525.322C157.967 551.844 161.603 560.257 163.742 561.149C148.235 560.614 150.909 553.662 149.839 544.572C148.77 535.482 154.117 506.606 150.909 482.543Z" fill="#D9D9D9"/>
<path d="M133.5 143.5C140.5 150.5 165.5 153 177.842 149.467" stroke="#D77E67" stroke-width="2"/>
<path d="M138.5 134.5C138.167 136.167 135.6 137.3 132 140.5C128.4 143.7 128.833 149.167 129 150" stroke="#965039"/>
<path d="M186.441 151.594L116.246 150C118.165 154.316 120.852 163.703 116.246 166.724C110.488 170.501 54.1399 195.851 54.1399 198.009C54.1399 200.167 20.1722 278.393 16.7178 304.828C13.2635 331.263 19.0207 369.567 20.1722 377.119C21.3236 384.672 6.35461 393.304 1.74882 406.791C0.364827 410.844 1.00822 415.53 2.78863 420.279C4.44399 424.693 7.08224 429.162 9.98775 433.226C14.3569 439.337 19.3305 444.533 22.4749 447.253C29.9593 453.727 46.6546 451.029 54.7155 445.095C62.7763 439.161 50.6854 432.687 48.9582 429.989C47.5765 427.831 50.6851 422.616 52.4121 420.279C74.8653 394.383 48.9587 401.936 48.9582 357.698V357.696C48.9581 345.633 48.9579 330.183 52.4121 313.46C55.1755 300.08 68.1483 274.077 77.168 256.274L212.726 257.21C221.166 273.869 233.306 297.524 235.892 310.044C239.124 325.693 239.124 340.15 239.123 351.438V351.44C239.123 392.836 214.881 385.768 235.892 410C237.508 412.187 240.416 417.067 239.123 419.086C237.507 421.611 226.193 427.668 233.736 433.222C241.279 438.775 256.902 441.299 263.905 435.241C266.848 432.696 271.501 427.834 275.59 422.115C278.309 418.313 280.778 414.131 282.327 410C283.993 405.556 284.595 401.171 283.3 397.379C278.99 384.758 264.982 376.681 266.06 369.614C267.137 362.546 272.525 326.703 269.292 301.967C266.06 277.23 237.482 197.188 237.482 195.168C230.574 189.773 192.774 176.95 186.441 173.713C181.374 171.123 184.33 157.348 186.441 151.594Z" fill="#F2C7A9"/>
<path d="M48.9582 429.989C47.5765 427.831 50.6851 422.616 52.4121 420.279C74.8653 394.383 48.9587 401.936 48.9582 357.698C48.9581 345.634 48.9577 330.184 52.4121 313.46C55.1755 300.08 68.1483 274.077 77.168 256.274L212.726 257.21C221.166 273.869 233.306 297.524 235.892 310.044C239.124 325.694 239.124 340.152 239.123 351.44C239.123 392.836 214.881 385.768 235.892 410C237.508 412.187 240.416 417.067 239.123 419.086M48.9582 429.989C50.6854 432.687 62.7763 439.161 54.7155 445.095C46.6546 451.029 29.9593 453.727 22.4749 447.253M48.9582 429.989C49.1502 434.485 47.807 442.721 40.8983 439.7C32.2624 435.924 35.1419 418.66 40.8983 412.726M22.4749 447.253C19.98 443.477 16.4872 432.795 22.4749 420.279M22.4749 447.253C19.3305 444.533 14.3569 439.337 9.98775 433.226M9.98775 433.226C9.5444 430.349 9.46372 422.544 12.6878 414.344M9.98775 433.226C7.08224 429.162 4.44399 424.693 2.78863 420.279M2.78863 420.279C1.00822 415.53 0.364827 410.844 1.74882 406.791C6.35461 393.304 21.3236 384.672 20.1722 377.119C19.0207 369.567 13.2635 331.263 16.7178 304.828C20.1722 278.393 54.1399 200.167 54.1399 198.009C54.1399 195.851 110.488 170.501 116.246 166.724C120.852 163.703 118.165 154.316 116.246 150L186.441 151.594C184.33 157.348 181.374 171.123 186.441 173.713C192.774 176.95 230.574 189.773 237.482 195.168C237.482 197.188 266.06 277.23 269.292 301.967C272.525 326.703 267.137 362.546 266.06 369.614C264.982 376.681 278.99 384.758 283.3 397.379C284.595 401.171 283.993 405.556 282.327 410M2.78863 420.279C2.634 418.84 2.90046 415.315 5.20336 412.726M239.123 419.086C237.507 421.611 226.193 427.668 233.736 433.222C241.279 438.775 256.902 441.299 263.905 435.241M239.123 419.086C238.944 423.293 240.201 431 246.666 428.173C254.747 424.64 252.052 408.485 246.666 402.932M263.905 435.241C266.24 431.707 269.508 421.712 263.905 410M263.905 435.241C266.848 432.696 271.502 427.834 275.59 422.115M275.59 422.115C276.005 419.423 276.08 412.12 273.063 404.447M275.59 422.115C278.309 418.313 280.778 414.131 282.327 410M282.327 410C282.471 408.653 282.222 405.355 280.067 402.932" stroke="#DDA991" stroke-width="2"/>
<path d="M23.0031 449C9.20691 435.984 -8.79146 415.045 7.4064 395.804C13.406 387.315 20.9906 379.939 20.6037 376.563C18.2039 355.624 14.0064 323.367 17.606 297.334C19.2928 285.135 22.439 274.859 23.1589 273C25.0121 273.717 28.7142 274.381 30.6425 274.89C31.15 275.024 31.6111 275.149 32.0001 275.264C17.8588 295.637 22.6434 352.568 26.0031 374.299C33.2042 389.579 -6.99124 405.424 14.6043 415.045C16.8146 422.968 15.3237 426.363 23.0031 421.836C18.2039 430.891 18.8039 435.418 23.0031 449Z" fill="#D9D9D9"/>
<path d="M213.5 277C212 274 210 258.5 212 252.5C217 276.5 224 287 226.5 287C234.516 287 231 292 232 294.5C232.8 296.5 234 297.333 234.5 297.5C241.5 301.5 244 347.5 244 367.5C244 377 227.174 387.5 235 397.5C244 409 246.5 424.5 241.5 429C236.5 433.5 246 438.5 241.5 437.5C237 436 227.5 433 231.5 426C233.546 423.5 234.5 422.5 238.5 419C239.05 416 232.864 407.5 232.5 407C227.093 399.566 226.5 397.5 226.5 394.5C226.5 391.5 229.5 385 232.5 380.5C235.5 376 238 365 238 341C238 321.8 231 304 227.5 297.5C226.167 297.5 223 297.2 221 296C218.5 294.5 217.842 285.683 213.5 277Z" fill="#D9D9D9"/>
<path d="M55.2915 187.43C65.6751 177.593 113.825 166.662 115.465 165.569C116.777 174.751 140.547 191.984 151.477 199.453C162.771 190.344 185.907 171.909 188.093 171.034C190.826 169.941 211.593 177.593 214.872 178.686C217.495 179.56 230.614 187.976 239.905 190.709C238.994 190.709 249.195 192.895 261.219 240.441C267.681 265.997 269.979 276.511 269.979 357.394C270.343 360.491 269.432 366.138 268.339 374.336C267.469 380.859 230.391 379.139 231.177 376.522C232.816 371.057 230.084 362.13 231.177 357.394C225.165 286.894 220.793 279.243 214.872 257.929C207.661 292.906 219.244 344.824 214.872 357.394C210.5 369.964 201.209 367.231 178.802 367.231C156.395 367.231 95.7329 373.243 79.3376 362.859C62.9423 352.475 69.4137 345.563 71.6865 320.778C73.5001 301 74.7834 268.495 78.2446 254.65C69.5001 277 53.5001 306.5 55.2006 366.138C55.3856 368.871 57.9332 380.347 57.9332 383.08C57.9332 386.579 21.317 382.533 18.5845 380.347C16.3985 378.599 17.6736 366.138 17.4915 360.127C10.9334 290.173 27.7934 263.941 33.4311 237.162C36.9288 220.548 49.462 197.085 55.2915 187.43Z" fill="#6FCCA2"/>
<path d="M17.4915 360.127C10.9334 290.173 27.7934 263.941 33.4311 237.162C36.9288 220.548 49.462 197.085 55.2915 187.43C65.6751 177.593 113.825 166.662 115.465 165.569C116.777 174.751 140.547 191.984 151.477 199.453M17.4915 360.127C17.9965 365.513 38.8053 365.045 55.2006 366.138M17.4915 360.127C17.6736 366.138 16.3985 378.599 18.5845 380.347C21.317 382.533 57.9332 386.579 57.9332 383.08C57.9332 380.347 55.3856 368.871 55.2006 366.138M55.2006 366.138C53.5001 306.5 69.5001 277 78.2446 254.65C74.7834 268.495 73.5001 301 71.6865 320.778C69.4137 345.563 62.9423 352.475 79.3376 362.859C95.7329 373.243 156.395 367.231 178.802 367.231C201.209 367.231 210.5 369.964 214.872 357.394C219.244 344.824 207.661 292.906 214.872 257.929C220.793 279.243 225.165 286.894 231.177 357.394M231.177 357.394C231.736 363.951 269.979 363.577 269.979 357.394M231.177 357.394C230.084 362.13 232.816 371.057 231.177 376.522C230.391 379.139 267.469 380.859 268.339 374.336C269.432 366.138 270.343 360.491 269.979 357.394M269.979 357.394C269.979 276.511 267.681 265.997 261.219 240.441C249.195 192.895 238.994 190.709 239.905 190.709C230.614 187.976 217.495 179.56 214.872 178.686C211.593 177.593 190.826 169.941 188.093 171.034C185.907 171.909 162.771 190.344 151.477 199.453M151.477 199.453C151.477 210.383 149.02 363.993 147.709 368.365" stroke="#91DDBB" stroke-width="2"/>
<circle cx="157.207" cy="203.826" r="4.41858" fill="#80DFB4" stroke="#91DDBB"/>
<circle cx="157.546" cy="245.907" r="4.41858" fill="#80DFB4" stroke="#91DDBB"/>
<circle cx="156.453" cy="288.534" r="4.41858" fill="#80DFB4" stroke="#91DDBB"/>
<circle cx="156.453" cy="333.348" r="4.41858" fill="#80DFB4" stroke="#91DDBB"/>
<path d="M94.3681 171.035C100.163 165.023 110.546 158.465 113.279 154.093C106.721 164.586 130.073 183.969 140.274 191.255C134.809 195.627 116.775 206.011 116.228 205.465C115.682 204.918 86.3945 179.307 94.3681 171.035Z" fill="#77D1A8"/>
<path d="M188.151 167.756C185.518 171.585 173.213 181.783 165.744 187.43C165.744 191.802 181.809 204.189 191.646 209.837C192.193 206.011 211.162 186.943 212.96 181.418C214.383 177.046 196.348 161.197 194.709 160.651C193.069 160.104 194.162 159.011 188.151 167.756Z" fill="#77D1A8"/>
<path d="M94.3681 171.035C100.163 165.023 110.546 158.465 113.279 154.093C106.721 164.586 130.073 183.969 140.274 191.255C134.809 195.627 116.775 206.011 116.228 205.465C115.682 204.918 86.3945 179.307 94.3681 171.035Z" stroke="#91DDBB" stroke-width="2"/>
<path d="M188.151 167.756C185.518 171.585 173.213 181.783 165.744 187.43C165.744 191.802 181.809 204.189 191.646 209.837C192.193 206.011 211.162 186.943 212.96 181.418C214.383 177.046 196.348 161.197 194.709 160.651C193.069 160.104 194.162 159.011 188.151 167.756Z" stroke="#91DDBB" stroke-width="2"/>
<path d="M78.245 254.497C78.2504 254.542 79.8846 268.175 79.8846 277.45V337.02C79.8846 350.136 91.3614 359.427 129.617 361.066C160.221 362.378 179.896 365.621 185.907 367.078C176.617 365.438 160.221 368.171 121.966 368.717C111.086 368.873 102.991 368.498 96.8264 367.756C85.6372 366.409 80.8047 363.854 77.2193 361.066C75.8338 359.989 74.6345 358.877 73.3265 357.787C67.6161 353.029 71.6869 334.834 71.6869 330.462C71.6869 326.09 74.4195 314.884 73.3265 304.5C72.452 296.193 75.1481 267.431 78.245 254.497Z" fill="#D9D9D9"/>
<path d="M216.251 250.825C221.716 277.055 229.367 288.532 232.1 288.534C240.861 288.534 239.921 376.522 241.014 379.255C237.188 379.255 231.723 378.162 230.084 376.522C232.27 360.127 224.072 297.825 223.525 295.639C222.753 292.547 219.527 278.897 214.781 269.406C213.142 266.127 214.066 257.383 216.251 250.825Z" fill="#D9D9D9"/>
<path d="M113.279 153C112.003 154.822 114.591 160.98 115.465 164.477C116.558 168.849 90.5321 165.024 127.147 201.093C124.596 202.55 118.84 205.684 116.217 206.558C112.934 207.643 95.9958 181.418 94.9029 178.139C85.9759 179.233 66.1561 183.933 58.2868 193.988C52.468 209.29 16.3984 286.348 28.4216 383.627C23.8675 381.987 15.8519 381.987 16.3984 376.522C16.3984 366.139 14.2125 303.136 21.8635 277.45C33.3402 223.5 51.1803 189.211 54.4612 186.337C58.8333 182.512 58.2883 180.872 93.2634 170.488C93.2634 166.481 102.895 166.116 110 155.186L113.279 153Z" fill="#D9D9D9"/>
<path d="M140.46 192.349C143.776 194.318 150.222 199.395 150.297 199.453C150.297 200 150.297 223.5 148.864 235.523C149.069 226.086 146.956 206.428 136.634 195.56L140.46 192.349Z" fill="#D9D9D9"/>
<path d="M153.312 200.96C153.497 202.941 154.616 208.289 161.096 206.904C158.872 209.604 154.424 209.604 152.756 206.364C151.423 203.772 152.756 200.964 153.312 200.96Z" fill="#D9D9D9"/>
<path d="M168.879 195.018C165.321 194.154 156.277 197.899 152.2 199.88L164.987 189.616L168.879 195.018Z" fill="#D9D9D9"/>
<path d="M153.72 243.174C153.906 245.155 155.025 250.503 161.504 249.117C159.28 251.818 154.832 251.818 153.164 248.577C151.831 245.986 153.164 243.178 153.72 243.174Z" fill="#D9D9D9"/>
<path d="M152.627 285.802C152.813 287.782 153.931 293.131 160.411 291.745C158.187 294.445 153.739 294.446 152.071 291.205C150.738 288.614 152.071 285.805 152.627 285.802Z" fill="#D9D9D9"/>
<path d="M153.042 330.137C153.227 332.118 154.346 337.466 160.825 336.081C158.601 338.781 154.153 338.781 152.485 335.54C151.152 332.949 152.485 330.141 153.042 330.137Z" fill="#D9D9D9"/>
<path d="M94.7453 155.187L108.557 143C118.036 182.81 141.055 281.93 141.868 293.304C142.447 301.408 140.243 379.966 136.993 407.86C90.8455 405.911 67.9343 392.965 62.2471 386.737C63.3304 374.55 66.4719 346.114 70.3717 329.865C74.2714 313.616 71.9966 286.805 70.3717 275.43C61.9221 289.729 57.6432 344.218 56.5599 369.675C54.6642 371.3 47.2979 374.55 32.9987 374.55C18.6995 374.55 9.70831 368.05 7.00012 364.8C7.81258 344.218 10.2499 298.016 13.4998 277.868C17.562 252.681 38.6859 184.435 41.1233 177.936C41.7198 176.345 42.585 175.018 43.5606 173.926C45.7742 171.45 48.5565 170.187 50.0603 169.811L94.7453 155.187Z" fill="#423E3B"/>
<path d="M94.7453 155.187L108.557 143C118.036 182.81 141.055 281.93 141.868 293.304C142.447 301.408 140.243 379.966 136.993 407.86C90.8455 405.911 67.9343 392.965 62.2471 386.737C63.3304 374.55 66.4719 346.114 70.3717 329.865C74.2714 313.616 71.9966 286.805 70.3717 275.43C61.9221 289.729 57.6432 344.218 56.5599 369.675C54.6642 371.3 47.2979 374.55 32.9987 374.55C18.6995 374.55 9.70831 368.05 7.00012 364.8C7.81258 344.218 10.2499 298.016 13.4998 277.868C17.562 252.681 38.6859 184.435 41.1233 177.936C41.7198 176.345 42.585 175.018 43.5606 173.926M94.7453 155.187L50.0603 169.811C48.5565 170.187 45.7742 171.45 43.5606 173.926M94.7453 155.187L85.8083 188.498L106.12 198.247L91.4955 215.309L136.181 293.304M43.5606 173.926C50.6019 178.783 65.8219 194.51 70.3717 218.558" stroke="black"/>
<path d="M206.476 160.488L193.482 149.114C191.857 189.737 162.179 285.18 162.179 293.304C162.179 317.703 164.325 376.987 168.387 405.423C206.373 403.473 223.037 392.965 227.718 386.737C226.826 374.55 221.81 347.088 219.572 330.677C217.135 312.803 218.759 293.304 218.759 288.43C228.509 302.241 231.508 344.218 232.399 369.675C233.96 371.3 245.987 372.112 257.757 372.112C266.694 372.112 275.84 368.863 278.069 365.613C277.4 345.031 275.057 295.579 272.382 275.43C269.038 250.244 247.112 184.435 245.106 177.936C244.615 176.345 243.903 175.018 243.1 173.926C241.278 171.45 238.987 170.187 237.75 169.811L206.476 160.488Z" fill="#423E3B"/>
<path d="M206.476 160.488L193.482 149.114C191.857 189.737 162.179 285.18 162.179 293.304C162.179 317.703 164.325 376.987 168.387 405.423C206.373 403.473 223.037 392.965 227.718 386.737C226.826 374.55 221.81 347.088 219.572 330.677C217.135 312.803 218.759 293.304 218.759 288.43M206.476 160.488L237.75 169.811C238.987 170.187 241.278 171.45 243.1 173.926M206.476 160.488L208.324 188.498L191.605 198.247L203.643 215.309L166.861 293.304M218.759 288.43C228.509 302.241 231.508 344.218 232.399 369.675C233.96 371.3 245.987 372.112 257.757 372.112C266.694 372.112 275.84 368.863 278.069 365.613C277.4 345.031 275.057 295.579 272.382 275.43C269.038 250.244 247.112 184.435 245.106 177.936C244.615 176.345 243.903 175.018 243.1 173.926M218.759 288.43C219.301 277.597 221.197 253.169 224.447 242.12M243.1 173.926C239.883 175.498 235.009 186.873 235.821 194.185" stroke="black"/>
<circle cx="133.743" cy="327.428" r="3.56228" fill="#423E3B" stroke="black"/>
<circle cx="130.493" cy="356.677" r="3.56228" fill="#423E3B" stroke="black"/>
<path d="M94.7453 155.187L108.557 143L109.37 147.875C108.72 149.825 98.8076 156.812 93.9329 160.062L92.3079 163.311C76.0588 166.561 45.998 177.936 45.998 182.81C45.998 187.685 32.1862 246.994 23.2492 275.43C16.0997 298.179 14.8539 348.279 15.1247 370.487C15.9532 370.763 17.0219 371.12 15.1247 370.488C15.1022 370.48 15.0794 370.472 15.0563 370.464C13.0765 369.759 8.874 366.407 7.00012 364.8C7.81258 344.218 10.2499 298.017 13.4998 277.868C17.562 252.681 38.6859 184.435 41.1232 177.936C41.9593 175.929 44.9243 171.492 50.0957 169.799L94.7453 155.187Z" fill="black" fill-opacity="0.35" style="mix-blend-mode:multiply"/>
<path d="M70.3716 329.865C74.2714 313.616 71.9966 286.805 70.3716 275.43C72.2674 271.639 76.0588 261.943 76.0588 253.494C79.8503 269.743 86.2958 307.766 81.746 329.865C76.0588 357.488 76.0588 386.737 76.0588 394.861C72.809 393.778 65.4969 390.636 62.2471 386.737C63.3304 374.55 66.4719 346.114 70.3716 329.865Z" fill="black" fill-opacity="0.35" style="mix-blend-mode:multiply"/>
<path d="M220.676 264.868C219.376 278.518 219.593 287.346 219.863 290.054C226.363 301.104 231.238 347.739 232.863 369.675L240.987 371.3C240.716 361.009 240.85 322.681 236.113 303.054C230.425 279.493 226.092 273.264 220.676 264.868Z" fill="black" fill-opacity="0.35" style="mix-blend-mode:multiply"/>
<path d="M68.7045 116.553C57.2528 91.8752 69.3862 79.7234 76.8844 76.7322C76.8844 25.7114 112.158 -0.0859139 153.568 1.03502C210.827 2.58496 220.202 55.7937 221.054 79.5365C222.588 79.5365 226.166 81.219 227.189 84.5841C230.767 99.7272 220.543 126.648 219.52 130.013C218.702 132.705 215.771 132.631 214.408 132.257C213.215 137.304 208.171 150.877 197.537 164.786C184.245 182.173 142.697 175.915 136.051 175.915C129.405 174.793 100.913 150.204 94.7779 143.474C89.87 138.09 87.9614 129.639 87.6206 126.087C87.1093 127.77 76.8844 136.743 68.7045 116.553Z" fill="#F6D6BE"/>
<path d="M87.6206 126.087C87.1093 127.77 76.8844 136.743 68.7045 116.553C57.2528 91.8752 69.3862 79.7234 76.8844 76.7322C76.8844 25.7114 112.158 -0.0859139 153.568 1.03502C210.827 2.58496 220.202 55.7937 221.054 79.5365C222.588 79.5365 226.166 81.219 227.189 84.5841C230.767 99.7272 220.543 126.648 219.52 130.013C218.702 132.705 215.771 132.631 214.408 132.257C213.215 137.304 208.171 150.877 197.537 164.786C184.245 182.173 142.697 175.915 136.051 175.915C129.405 174.793 100.913 150.204 94.7779 143.474C89.87 138.09 87.9614 129.639 87.6206 126.087ZM87.6206 126.087C87.6206 125.638 85.5756 109.448 84.5531 101.409M75.8621 98.0442C73.3059 98.0442 69.7272 104.214 73.8171 109.261M222.03 98.0276C222.03 94.1016 222.03 93.5408 221.054 91.8582" stroke="#F2C7A9" stroke-width="2"/>
<path d="M77.0678 120.235C71.6494 117.545 66.3826 111.943 64.0027 91.7666C62.9628 96.8106 62.9621 100.993 64.0027 105.476C65.0433 109.96 68.6918 120.777 73.0053 125.804C79.2573 133.09 85.1852 129.849 86.7462 128.168C87.4408 130.783 90.3481 138.266 92.432 141.405C95.2114 144.954 103.229 152.293 111.982 159.467C122.923 168.434 129.866 174.706 135.076 176.388C140.286 178.069 176.586 178.522 183.88 175.72C173.807 177.027 151.265 178.41 141.679 173.478C129.696 167.313 100.001 141.532 96.3521 134.807C93.4329 129.427 89.2106 122.851 87.4643 120.235C86.9433 121.356 83.8408 123.598 77.0678 120.235Z" fill="#E2D1C6"/>
<path d="M75.8483 98.8577C74.2853 98.8577 70.6383 103.902 73.7643 107.825C75.2028 109.63 76.5429 103.902 75.8483 98.8577Z" fill="#E2D1C6"/>
<path d="M131.177 1.94531C87.22 12.3457 75.3745 51.5834 75.8483 76.166C80.4652 74.3726 84.9748 77.0569 86.5166 78.5515C82.3256 37.8381 112.315 10.2016 131.177 1.94531Z" fill="#E2D1C6"/>
<g opacity="0.4" style="mix-blend-mode:screen">
<ellipse cx="15.1465" cy="8.39962" rx="15.1465" ry="8.39962" transform="matrix(0.946062 0.323986 -0.325309 0.945608 168.496 10.4551)" fill="#F6D6BE"/>
</g>
<path d="M139 93C139 101.5 135.5 106 128.5 106C121.5 106 118 99.5 118 93C118 86.5 122 80 128.5 80C135 80 139 84.5 139 93Z" fill="#874C39"/>
<path d="M206 93C206 100.846 202.833 105 196.5 105C190.167 105 187 99 187 93C187 87 190.619 81 196.5 81C202.381 81 206 85.1538 206 93Z" fill="#874C39"/>
<circle cx="129" cy="93" r="5" fill="black"/>
<circle cx="126" cy="88" r="5" fill="white"/>
<circle cx="196.5" cy="92.5" r="4.5" fill="black"/>
<circle cx="194.5" cy="89.5" r="4.5" fill="white"/>
<path d="M146 104.5C143.833 107.167 137.8 113 131 115" stroke="#D6A383" stroke-width="0.5"/>
<path d="M184 103C185.878 105.54 191.107 111.095 197 113" stroke="#D6A383" stroke-width="0.5"/>
<path d="M84.4051 79.3127C82.109 75.8725 77.2299 75.968 75.0773 76.4458C75.0773 73.579 72.4806 62.9857 75.3507 48.6515C77.6467 37.1841 88.7444 28.1057 94.0063 25C93.5279 26.9112 92.8582 31.7371 94.0063 35.7507C95.4413 40.7676 105.213 44.1936 107.366 49.2106C109.518 54.2276 100.908 64.2615 98.038 69.9952C95.742 74.5822 97.0813 87.1963 98.038 92.93C96.603 93.1689 92.8719 92.93 89.4278 90.0631C85.1226 86.4796 87.2752 83.6129 84.4051 79.3127Z" fill="#957265"/>
<path d="M223.225 69.4237C223.225 80.7041 219.121 81.5656 216.49 86.8215C220.98 68.3013 213.684 40.8016 212 35.7507C220.419 42.4853 223.225 50.3329 223.225 69.4237Z" fill="#957265"/>
<path d="M84.4051 79.3127C82.109 75.8725 77.2299 75.968 75.0773 76.4458C75.0773 73.579 72.4806 62.9857 75.3507 48.6515C77.6467 37.1841 88.7444 28.1057 94.0063 25C93.5279 26.9112 92.8582 31.7371 94.0063 35.7507C95.4413 40.7676 105.213 44.1936 107.366 49.2106C109.518 54.2276 100.908 64.2615 98.038 69.9952C95.742 74.5822 97.0813 87.1963 98.038 92.93C96.603 93.1689 92.8719 92.93 89.4278 90.0631C85.1226 86.4796 87.2752 83.6129 84.4051 79.3127Z" stroke="#7B5042"/>
<path d="M223.225 69.4237C223.225 80.7041 219.121 81.5656 216.49 86.8215C220.98 68.3013 213.684 40.8016 212 35.7507C220.419 42.4853 223.225 50.3329 223.225 69.4237Z" stroke="#7B5042"/>
<path d="M173.5 125C174.996 125.997 167.059 132.528 164.672 134.915C162.846 134.809 158.166 134.168 159.333 130.785C160.983 126 170 131.5 173.5 125Z" fill="#E2D1C6"/>
<path d="M164.528 135C165.174 133.224 174.136 127.95 174 125.5C173.5 116.5 164.528 111.327 163.883 106" stroke="#DDA991"/>
<path d="M135.5 148.5C142.5 155.5 167.5 158 179.842 154.467" stroke="#DDA991" stroke-width="2"/>
<path d="M140.5 139.5C140.167 141.167 137.6 142.3 134 145.5C130.4 148.7 130.833 154.167 131 155" stroke="#E5B79F"/>
<path d="M135.733 73.7989C122.891 73.7989 114.988 78.5666 114 79C114 73.3658 123.879 66 135.733 66C147.587 66 154.995 69.034 152.526 73.7989C150.03 78.6149 148.575 73.7989 135.733 73.7989Z" fill="#957265" stroke="#7B5042"/>
<path d="M193.74 72.5969C201.107 72.5969 206.018 75.5691 207 76C207 70.3984 202.089 66.9947 193.74 66.1329C185.391 65.271 178.024 68.721 180.479 73.0278C182.301 76.2226 184.9 72.5969 193.74 72.5969Z" fill="#957265" stroke="#7B5042"/>
</svg>
