<svg width="31" height="38" viewBox="0 0 31 38" fill="none" xmlns="http://www.w3.org/2000/svg">
<path d="M15.1907 19.8636C15.2251 19.57 15.2596 19.2936 15.2596 19C15.2596 18.7064 15.2251 18.43 15.1907 18.1364L17.0506 16.7373C17.2228 16.6164 17.2228 16.4091 17.1539 16.1845L15.3801 13.1964C15.2768 13.0064 15.0357 12.9545 14.8463 13.0064L12.6419 13.87C12.1769 13.5245 11.6775 13.2482 11.1436 13.0236L10.7992 10.7264C10.7992 10.5191 10.6098 10.3636 10.3859 10.3636H6.88994C6.63162 10.3636 6.44218 10.5191 6.40774 10.7264L6.02887 13.0064C5.52944 13.2136 5.03002 13.5245 4.56504 13.8182L2.36069 12.9545C2.15404 12.9027 1.93016 12.9545 1.82683 13.1791L0.0530167 16.1673C-0.0503121 16.4091 0.00135235 16.5991 0.173567 16.7373L2.03349 18.1364C1.99904 18.43 1.98182 18.7236 1.98182 19C1.98182 19.2936 2.01626 19.57 2.05071 19.8636L0.173567 21.28C0.00135235 21.4009 0.00135225 21.6427 0.0702381 21.8327L1.84405 24.8209C1.94738 25.0455 2.18848 25.0455 2.37792 25.0455L4.58226 24.1818C5.04724 24.4927 5.54667 24.7691 6.08053 24.9936L6.42496 27.2736C6.44218 27.4809 6.63162 27.6364 6.88994 27.6364H10.4031C10.627 27.6364 10.8164 27.4809 10.8337 27.2736L11.1953 24.9936C11.712 24.7864 12.2114 24.4755 12.6764 24.1818L14.8807 25.0455C15.0874 25.0973 15.3112 25.0455 15.4146 24.8209L17.2228 21.8327C17.2917 21.6427 17.2228 21.4182 17.085 21.28L15.1907 19.8636ZM8.61209 22.0227C6.88994 22.0227 5.51222 20.6755 5.51222 19C5.51222 17.3245 6.88994 15.9773 8.61209 15.9773C10.3342 15.9773 11.712 17.3245 11.712 19C11.712 20.6755 10.3342 22.0227 8.61209 22.0227ZM27.5557 0H10.3342C9.42075 0 8.54468 0.36396 7.89875 1.01181C7.25282 1.65967 6.88994 2.53834 6.88994 3.45455V8.63636H10.3342V5.18182H27.5557V32.8182H10.3342V29.3636H6.88994V34.5455C6.88994 35.4617 7.25282 36.3403 7.89875 36.9882C8.54468 37.636 9.42075 38 10.3342 38H27.5557C28.4692 38 29.3453 37.636 29.9912 36.9882C30.6371 36.3403 31 35.4617 31 34.5455V3.45455C31 2.53834 30.6371 1.65967 29.9912 1.01181C29.3453 0.36396 28.4692 0 27.5557 0Z" fill="black"/>
</svg>
