<svg width="87" height="107" viewBox="0 0 87 107" fill="none" xmlns="http://www.w3.org/2000/svg">
<path d="M42.6319 55.9318C42.7286 55.105 42.8253 54.3268 42.8253 53.5C42.8253 52.6732 42.7286 51.895 42.6319 51.0682L47.8517 47.1286C48.335 46.7882 48.335 46.2045 48.1417 45.5723L43.1636 37.1582C42.8736 36.6232 42.197 36.4773 41.6653 36.6232L35.4789 39.055C34.174 38.0823 32.7724 37.3041 31.2741 36.6718L30.3075 30.2032C30.3075 29.6195 29.7758 29.1818 29.1475 29.1818H19.3363C18.6113 29.1818 18.0797 29.6195 17.983 30.2032L16.9197 36.6232C15.5181 37.2068 14.1165 38.0823 12.8116 38.9091L6.62517 36.4773C6.0452 36.3314 5.41689 36.4773 5.1269 37.1095L0.148789 45.5236C-0.141199 46.2045 0.0037953 46.7395 0.487108 47.1286L5.70688 51.0682C5.61022 51.895 5.56189 52.7218 5.56189 53.5C5.56189 54.3268 5.65855 55.105 5.75521 55.9318L0.487108 59.92C0.0037953 60.2605 0.00379501 60.9414 0.19712 61.4764L5.17524 69.8905C5.46522 70.5227 6.14186 70.5227 6.6735 70.5227L12.8599 68.0909C14.1648 68.9664 15.5665 69.7445 17.0647 70.3768L18.0313 76.7968C18.0797 77.3805 18.6113 77.8182 19.3363 77.8182H29.1959C29.8242 77.8182 30.3558 77.3805 30.4041 76.7968L31.4191 70.3768C32.869 69.7932 34.2706 68.9177 35.5756 68.0909L41.762 70.5227C42.3419 70.6686 42.9702 70.5227 43.2602 69.8905L48.335 61.4764C48.5283 60.9414 48.335 60.3091 47.9484 59.92L42.6319 55.9318ZM24.1694 62.0114C19.3363 62.0114 15.4698 58.2177 15.4698 53.5C15.4698 48.7823 19.3363 44.9886 24.1694 44.9886C29.0025 44.9886 32.869 48.7823 32.869 53.5C32.869 58.2177 29.0025 62.0114 24.1694 62.0114ZM77.3338 0H29.0025C26.4389 0 23.9802 1.02483 22.1675 2.84905C20.3547 4.67327 19.3363 7.14744 19.3363 9.72727V24.3182H29.0025V14.5909H77.3338V92.4091H29.0025V82.6818H19.3363V97.2727C19.3363 99.8526 20.3547 102.327 22.1675 104.151C23.9802 105.975 26.4389 107 29.0025 107H77.3338C79.8974 107 82.356 105.975 84.1688 104.151C85.9816 102.327 87 99.8526 87 97.2727V9.72727C87 7.14744 85.9816 4.67327 84.1688 2.84905C82.356 1.02483 79.8974 0 77.3338 0Z" fill="black"/>
</svg>
