<svg width="76" height="94" viewBox="0 0 76 94" fill="none" xmlns="http://www.w3.org/2000/svg">
<path d="M37.2417 49.1364C37.3261 48.41 37.4106 47.7264 37.4106 47C37.4106 46.2736 37.3261 45.59 37.2417 44.8636L41.8015 41.4027C42.2237 41.1036 42.2237 40.5909 42.0548 40.0355L37.7061 32.6436C37.4528 32.1736 36.8617 32.0455 36.3973 32.1736L30.9931 34.31C29.8531 33.4555 28.6287 32.7718 27.3199 32.2164L26.4755 26.5336C26.4755 26.0209 26.0111 25.6364 25.4622 25.6364H16.8915C16.2582 25.6364 15.7937 26.0209 15.7093 26.5336L14.7804 32.1736C13.5561 32.6864 12.3317 33.4555 11.1917 34.1818L5.78751 32.0455C5.28086 31.9173 4.732 32.0455 4.47868 32.6009L0.129976 39.9927C-0.123346 40.5909 0.00331543 41.0609 0.425519 41.4027L4.98532 44.8636C4.90088 45.59 4.85866 46.3164 4.85866 47C4.85866 47.7264 4.9431 48.41 5.02754 49.1364L0.425519 52.64C0.00331543 52.9391 0.00331518 53.5373 0.172197 54.0073L4.5209 61.3991C4.77422 61.9545 5.3653 61.9545 5.82973 61.9545L11.2339 59.8182C12.3739 60.5873 13.5983 61.2709 14.9071 61.8264L15.7515 67.4664C15.7937 67.9791 16.2582 68.3636 16.8915 68.3636H25.5044C26.0533 68.3636 26.5177 67.9791 26.5599 67.4664L27.4466 61.8264C28.7132 61.3136 29.9376 60.5445 31.0775 59.8182L36.4817 61.9545C36.9884 62.0827 37.5372 61.9545 37.7906 61.3991L42.2237 54.0073C42.3926 53.5373 42.2237 52.9818 41.8859 52.64L37.2417 49.1364ZM21.1135 54.4773C16.8915 54.4773 13.5138 51.1445 13.5138 47C13.5138 42.8555 16.8915 39.5227 21.1135 39.5227C25.3355 39.5227 28.7132 42.8555 28.7132 47C28.7132 51.1445 25.3355 54.4773 21.1135 54.4773ZM67.5559 0H25.3355C23.096 0 20.9483 0.900322 19.3647 2.50291C17.7811 4.10549 16.8915 6.27906 16.8915 8.54545V21.3636H25.3355V12.8182H67.5559V81.1818H25.3355V72.6364H16.8915V85.4545C16.8915 87.7209 17.7811 89.8945 19.3647 91.4971C20.9483 93.0997 23.096 94 25.3355 94H67.5559C69.7954 94 71.9432 93.0997 73.5268 91.4971C75.1104 89.8945 76 87.7209 76 85.4545V8.54545C76 6.27906 75.1104 4.10549 73.5268 2.50291C71.9432 0.900322 69.7954 0 67.5559 0Z" fill="black"/>
</svg>
